<svg width="24" height="24" viewBox="0 0 24 24" fill="none" xmlns="http://www.w3.org/2000/svg">
<path fill-rule="evenodd" clip-rule="evenodd" d="M12 19.5C16.1421 19.5 19.5 16.1421 19.5 12C19.5 7.85786 16.1421 4.5 12 4.5C7.85786 4.5 4.5 7.85786 4.5 12C4.5 16.1421 7.85786 19.5 12 19.5ZM12 21C16.9706 21 21 16.9706 21 12C21 7.02944 16.9706 3 12 3C7.02944 3 3 7.02944 3 12C3 16.9706 7.02944 21 12 21Z" />
<path fill-rule="evenodd" clip-rule="evenodd" d="M7.99854 9.0027V15.004H8.99721V9.0027H7.99854ZM15.9985 10.0014H16.9972V11.004H18.0012V12.0027H16.9972V13.0027H15.9985V12.0027H14.9999V11.004H15.9985V10.0014ZM9.99854 13.1929C9.99854 12.6037 10.3106 12.0792 10.7938 11.7485C10.5138 11.4569 10.3423 11.0638 10.3423 10.6313C10.3423 9.73185 11.0845 9.00269 12 9.00269C12.9155 9.00269 13.6577 9.73185 13.6577 10.6313C13.6577 11.0645 13.4856 11.4581 13.2048 11.7499C13.6869 12.0807 13.9985 12.6045 13.9985 13.1929C13.9985 14.1918 13.1025 15.0027 11.9985 15.0027C10.8932 15.0027 9.99854 14.1918 9.99854 13.1929ZM12.9985 13.1929C12.9985 12.6928 12.5492 12.2868 11.9985 12.2868C11.4465 12.2868 10.9985 12.6928 10.9985 13.1929C10.9985 13.6941 11.4465 14.099 11.9985 14.099C12.5492 14.099 12.9985 13.6941 12.9985 13.1929ZM12 11.2599C12.38 11.2599 12.6577 10.9619 12.6577 10.6313C12.6577 10.3007 12.38 10.0027 12 10.0027C11.62 10.0027 11.3423 10.3007 11.3423 10.6313C11.3423 10.9619 11.62 11.2599 12 11.2599Z" />
</svg>
