<svg width="24" height="24" viewBox="0 0 24 24" fill="none" xmlns="http://www.w3.org/2000/svg">
<path fill-rule="evenodd" clip-rule="evenodd" d="M1 2.5C1 1.67157 1.67157 1 2.5 1L17.5 1C18.3284 1 19 1.67157 19 2.5V17.5C19 18.3284 18.3284 19 17.5 19H2.5C1.67157 19 1 18.3284 1 17.5L1 2.5ZM2.5 17.5L2.5 2.5L17.5 2.5V17.5H2.5Z" />
<path d="M9 7C9 8.10457 8.10457 9 7 9C5.89543 9 5 8.10457 5 7C5 5.89543 5.89543 5 7 5C8.10457 5 9 5.89543 9 7Z" />
<path d="M8.2 10.3333L4 15H16L13 8L10.6 12.6667L8.2 10.3333Z" />
<path d="M4 20.5C4 21.3284 4.67157 22 5.5 22H20.5C21.3284 22 22 21.3284 22 20.5V5.5C22 4.67157 21.3284 4 20.5 4V20.5H4Z" />
</svg>
