<svg width="24" height="24" viewBox="0 0 24 24" fill="none" xmlns="http://www.w3.org/2000/svg">
<path fill-rule="evenodd" clip-rule="evenodd" d="M12.025 10.004C13.129 10.004 14.0237 10.8987 14.0237 12.0027C14.0237 13.1067 13.129 14.0013 12.025 14.0013C10.921 14.0013 10.0264 13.1067 10.0264 12.0027C10.0264 10.8987 10.921 10.004 12.025 10.004Z" />
<path fill-rule="evenodd" clip-rule="evenodd" d="M12 19.5C16.1421 19.5 19.5 16.1421 19.5 12C19.5 7.85786 16.1421 4.5 12 4.5C7.85786 4.5 4.5 7.85786 4.5 12C4.5 16.1421 7.85786 19.5 12 19.5ZM12 21C16.9706 21 21 16.9706 21 12C21 7.02944 16.9706 3 12 3C7.02944 3 3 7.02944 3 12C3 16.9706 7.02944 21 12 21Z" />
<path d="M10.6091 14.0782C11.4468 14.6399 12.5752 14.6352 13.4082 14.0665C14.0638 15.2669 14.7161 16.469 15.3654 17.6732C13.2181 18.9984 10.6774 18.8945 8.68734 17.6405L10.6091 14.0782Z" />
<path d="M14.5 12C14.5646 11.001 14.0032 10.1989 13.1038 9.75582L15.2417 6.28809C17.3227 7.38454 18.574 9.4777 18.5 12H14.5Z" />
<path d="M10.9369 9.73623C10.0155 10.1696 9.43495 10.9855 9.5 12H5.5C5.426 9.4777 6.73008 7.38454 8.81111 6.28809L10.9369 9.73623Z" />
</svg>
