<svg width="32" height="32" viewBox="0 0 32 32" fill="none" xmlns="http://www.w3.org/2000/svg">
<g clip-path="url(#clip0_1_417)">
<path fill-rule="evenodd" clip-rule="evenodd" d="M24.7173 8.32492C23.5881 7.19578 21.8595 7.30932 21.0182 8.15062L12.9217 16.2471C12.6792 16.4896 12.5324 16.8569 12.5193 17.2448C12.506 17.6387 12.6319 17.9535 12.803 18.1246C12.972 18.2936 13.2872 18.4192 13.6847 18.405C14.0764 18.391 14.4435 18.2429 14.6805 18.0059L20.6074 12.079C20.9003 11.7861 21.3751 11.7861 21.668 12.079C21.9609 12.3719 21.9609 12.8468 21.668 13.1397L15.7412 19.0665C15.1927 19.6151 14.4431 19.8788 13.7383 19.904C13.0393 19.929 12.2782 19.7211 11.7423 19.1853C11.2086 18.6515 10.9965 17.8945 11.0202 17.1942C11.044 16.4879 11.309 15.7386 11.8611 15.1864L19.9576 7.08996C21.409 5.63855 24.0876 5.57396 25.7779 7.26426C27.4682 8.95456 27.4036 11.6332 25.9522 13.0846L16.0948 22.9421C14.8637 24.1732 13.3701 24.8915 11.8493 24.9816C10.3186 25.0722 8.81586 24.5214 7.61105 23.3166C5.12298 20.8285 5.827 16.9914 7.9855 14.8329L15.4327 7.38563C15.7256 7.09274 16.2005 7.09274 16.4934 7.38563C16.7863 7.67852 16.7863 8.1534 16.4934 8.44629L9.04616 15.8935C7.29806 17.6416 6.93062 20.5148 8.67171 22.2559C9.58148 23.1657 10.6691 23.5488 11.7606 23.4842C12.8622 23.419 14.0228 22.8928 15.0341 21.8815L24.8916 12.024C25.7329 11.1827 25.8464 9.45406 24.7173 8.32492Z"/>
</g>
<defs>
<clipPath id="clip0_1_417">
<rect width="24" height="24" fill="white" transform="translate(4 4)"/>
</clipPath>
</defs>
</svg>
