<svg width="24" height="24" viewBox="0 0 24 24" fill="none" xmlns="http://www.w3.org/2000/svg">
<path fill-rule="evenodd" clip-rule="evenodd" d="M16.5 21.5C19.2614 21.5 21.5 19.2614 21.5 16.5C21.5 13.7386 19.2614 11.5 16.5 11.5C13.7386 11.5 11.5 13.7386 11.5 16.5C11.5 19.2614 13.7386 21.5 16.5 21.5ZM16.5 23C20.0899 23 23 20.0899 23 16.5C23 12.9101 20.0899 10 16.5 10C12.9101 10 10 12.9101 10 16.5C10 20.0899 12.9101 23 16.5 23Z" />
<path fill-rule="evenodd" clip-rule="evenodd" d="M2.51197 16.1592C2.50679 16.254 2.50365 16.3649 2.50189 16.5H9C9 17.0137 9.05165 17.5153 9.15003 18H2.30617C1.6545 18 1 17.4291 1 16.8596C1 15.603 1.04108 15.2899 1.53975 14.8507C2.29625 14.1325 4.11808 13.427 5.78125 13.0912C7.04487 12.7399 7.0798 11.8898 7.21154 10.9733C5.72687 9.83008 4.92308 7.409 4.92308 5.55317C4.92308 3.04 7.154 1 9.5 1C11.846 1 14.0769 3.04 14.0769 5.55317C14.0769 6.99972 13.5886 8.7897 12.6701 10.0503C11.8002 10.5679 11.0439 11.2566 10.4476 12.0699C10.3636 11.7009 10.3303 11.3715 10.3037 11.1868C10.2267 10.6509 10.4444 10.1151 10.8733 9.78486C11.3305 9.43276 11.7684 8.80585 12.094 7.98018C12.4149 7.16641 12.5769 6.28343 12.5769 5.55317C12.5769 3.91337 11.0632 2.5 9.5 2.5C7.93676 2.5 6.42308 3.91337 6.42308 5.55317C6.42308 6.28343 6.58506 7.16641 6.90597 7.98018C7.23158 8.80585 7.66945 9.43276 8.12671 9.78486C8.55562 10.1151 8.7733 10.6509 8.69628 11.1868C8.64997 11.5089 8.58316 12.2656 8.26589 12.9083C7.86835 13.7135 7.16726 14.2628 6.18305 14.5364C5.40829 14.7518 4.63544 14.9122 3.88541 15.2171C3.47123 15.3855 2.54312 15.5896 2.51197 16.1592Z" />
<path fill-rule="evenodd" clip-rule="evenodd" d="M20.0303 13.9697C20.3232 14.2626 20.3232 14.7374 20.0303 15.0303L16.5303 18.5303C16.2374 18.8232 15.7626 18.8232 15.4697 18.5303L13.4697 16.5303C13.1768 16.2374 13.1768 15.7626 13.4697 15.4697C13.7626 15.1768 14.2374 15.1768 14.5303 15.4697L16 16.9393L18.9697 13.9697C19.2626 13.6768 19.7374 13.6768 20.0303 13.9697Z" />
</svg>
