<svg width="100" height="100" viewBox="0 0 100 100" fill="none" xmlns="http://www.w3.org/2000/svg">
<path fill-rule="evenodd" clip-rule="evenodd" d="M0 8C0 3.58172 3.58172 0 8 0H92C96.4183 0 100 3.58172 100 8V92C100 96.4183 96.4183 100 92 100H86.8118C88.1227 98.9804 88.9375 97.5817 88.9375 96.1848C88.9375 90.2679 88.7425 88.7936 86.474 86.7257C82.99 83.3436 74.6245 80.0216 67 78.4406C61.5679 76.8924 61.085 73.2877 60.5499 69.2941C60.5132 69.0203 60.4763 68.7447 60.4375 68.4678C67.2495 63.0845 70.9375 51.6841 70.9375 42.9454C70.9375 31.1114 60.7015 21.5055 49.9375 21.5055C39.1735 21.5055 28.9375 31.1114 28.9375 42.9454C28.9375 51.6841 32.6255 63.0845 39.4375 68.4678C39.3992 68.7411 39.3627 69.0131 39.3265 69.2834C38.7901 73.2812 38.3059 76.891 32.875 78.4406C25.244 80.0216 16.885 83.3436 13.414 86.7257C11.126 88.7936 10.9375 90.2679 10.9375 96.1848C10.9375 97.5817 11.7523 98.9804 12.9557 100H8C3.58172 100 0 96.4183 0 92V8Z"/>
</svg>
