<svg width="24" height="24" viewBox="0 0 24 24" fill="none" xmlns="http://www.w3.org/2000/svg">
<path fill-rule="evenodd" clip-rule="evenodd" d="M21 12C21 16.9706 16.9706 21 12 21C7.02944 21 3 16.9706 3 12C3 7.02944 7.02944 3 12 3C16.9706 3 21 7.02944 21 12ZM19.5 12C19.5 16.1421 16.1421 19.5 12 19.5C10.199 19.5 8.54635 18.8652 7.25345 17.8072L17.8072 7.25345C18.8652 8.54635 19.5 10.199 19.5 12ZM6.19279 16.7465L16.7465 6.19279C15.4536 5.13477 13.801 4.5 12 4.5C7.85786 4.5 4.5 7.85786 4.5 12C4.5 13.801 5.13477 15.4536 6.19279 16.7465Z" />
</svg>
