<svg width="24" height="24" viewBox="0 0 24 24" fill="none" xmlns="http://www.w3.org/2000/svg">
<path fill-rule="evenodd" clip-rule="evenodd" d="M9 13.0064C9.552 13.0064 10 13.4542 10 14.006C10 14.5577 9.552 15.0056 9 15.0056C8.448 15.0056 8 14.5577 8 14.006C8 13.4542 8.448 13.0064 9 13.0064Z" />
<path fill-rule="evenodd" clip-rule="evenodd" d="M15 13.0064C15.552 13.0064 16 13.4542 16 14.006C16 14.5577 15.552 15.0056 15 15.0056C14.448 15.0056 14 14.5577 14 14.006C14 13.4542 14.448 13.0064 15 13.0064Z" />
<path fill-rule="evenodd" clip-rule="evenodd" d="M10.2361 18.6334C9.69609 18.3868 9.24009 18.003 9.02676 17.4712C8.95609 17.2993 9.05876 17.1087 9.25209 17.0474C9.44676 16.9861 9.66276 17.0753 9.73209 17.2473C10.3174 18.692 13.7748 18.7107 14.2641 17.2646C14.3241 17.0887 14.5348 16.9887 14.7321 17.042C14.9281 17.094 15.0428 17.2793 14.9841 17.4552C14.7988 18.0003 14.3601 18.3908 13.8268 18.6414C13.2974 18.8893 12.6641 19.0052 12.0401 19.0039C11.4134 19.0012 10.7774 18.8813 10.2361 18.6334Z" />
<path fill-rule="evenodd" clip-rule="evenodd" d="M19.7287 11.9356C21.748 11.3212 23 10.5638 23 10.0076C23 9.28685 20.8834 8.65249 17.7166 8.30096C16.9851 6.54175 16.0516 4.52583 14.5933 2.65197C13.9687 1.46756 13.3203 2.15665 12.7791 2.73174C12.5012 3.02705 12.2516 3.2923 12.048 3.25838C11.8225 3.29059 11.5969 3.05298 11.3424 2.78484C10.8069 2.22077 10.1432 1.52155 9.08133 2.91453C7.82024 4.57081 6.99754 6.36945 6.26427 8.30272C3.10686 8.65523 1 9.2884 1 10.0076C1 10.5638 2.25182 11.3211 4.271 11.9355C4.09421 12.596 4 13.29 4 14.006C4 18.4202 7.584 22.0027 12 22.0027C16.416 22.0027 20 18.4202 20 14.006C20 13.2901 19.9056 12.5961 19.7287 11.9356ZM6.00033 9.99075C6.10744 9.71576 6.20735 9.45259 6.30368 9.19819C8.50703 10.4346 15.5517 10.1144 17.6636 9.1755C17.7804 9.45421 17.8921 9.72671 18 9.9916L17.9983 9.99278C16.3676 11.1208 7.86362 11.5522 6.00033 9.99075ZM5.71952 12.3188C7.50064 12.7263 9.66579 13.0064 12 13.0064C14.3342 13.0064 16.4994 12.7263 18.2805 12.3188C18.4237 12.855 18.5 13.4186 18.5 14C18.5 17.5899 15.5899 20.5 12 20.5C8.41015 20.5 5.5 17.5899 5.5 14C5.5 13.4186 5.57633 12.855 5.71952 12.3188Z" />
</svg>
