<svg width="24" height="24" viewBox="0 0 24 24" fill="none" xmlns="http://www.w3.org/2000/svg">
<path fill-rule="evenodd" clip-rule="evenodd" d="M12 19.5C16.1421 19.5 19.5 16.1421 19.5 12C19.5 7.85786 16.1421 4.5 12 4.5C7.85786 4.5 4.5 7.85786 4.5 12C4.5 16.1421 7.85786 19.5 12 19.5ZM12 21C16.9706 21 21 16.9706 21 12C21 7.02944 16.9706 3 12 3C7.02944 3 3 7.02944 3 12C3 16.9706 7.02944 21 12 21Z" />
<ellipse cx="9.5" cy="10" rx="0.5" ry="1"/>
<ellipse cx="14.5" cy="10" rx="0.5" ry="1"/>
<path fill-rule="evenodd" clip-rule="evenodd" d="M8.43797 13.0039C8.71198 12.9696 8.96188 13.164 8.99613 13.438C9.20841 15.1362 10.5716 16 12 16C13.4284 16 14.7916 15.1362 15.0039 13.438C15.0381 13.164 15.288 12.9696 15.562 13.0039C15.836 13.0381 16.0304 13.288 15.9961 13.562C15.7084 15.8637 13.8216 17 12 17C10.1784 17 8.29157 15.8637 8.00385 13.562C7.9696 13.288 8.16396 13.0381 8.43797 13.0039Z"/>
</svg>
