<svg width="24" height="24" viewBox="0 0 24 24" fill="none" xmlns="http://www.w3.org/2000/svg">
<path fill-rule="evenodd" clip-rule="evenodd" d="M3.53369 20.0013C3.25718 20.0013 3.03302 20.2255 3.03302 20.502C3.03302 20.7785 3.25718 21.0027 3.53369 21.0027H20.5257C20.8022 21.0027 21.0264 20.7785 21.0264 20.502C21.0264 20.2255 20.8022 20.0013 20.5257 20.0013H3.53369Z" />
<path fill-rule="evenodd" clip-rule="evenodd" d="M4.51905 18.0027C4.24327 18.0027 4.01971 18.2262 4.01971 18.502C4.01971 18.7778 4.24327 19.0013 4.51905 19.0013H19.527C19.8028 19.0013 20.0264 18.7778 20.0264 18.502C20.0264 18.2262 19.8028 18.0027 19.527 18.0027H19V10H19.9999C20.5522 10 21 9.54288 21 8.979V8.55876C21 8.18797 20.8031 7.84632 20.4856 7.66625L12.4845 3.12848C12.1825 2.95717 11.8152 2.95717 11.5131 3.12848L3.51442 7.66491C3.19567 7.8457 2.99855 8.18926 3.00001 8.56151L3.00166 8.98309C3.00386 9.54537 3.45099 10 4.00178 10H5V18.0027H4.51905ZM7 10H9V18.0027H7V10ZM11 10H13V18.0027H11V10ZM15 10H17V18.0027H15V10ZM17.9996 8.77548C17.9996 8.88788 17.9104 8.979 17.8002 8.979H6.20273C6.09262 8.979 6.00337 8.88788 6.00337 8.77548L6 8.5L11.4841 5.21043C11.8009 5.0163 12.1967 5.01632 12.5136 5.21048L18 8.5L17.9996 8.77548Z" />
</svg>
