<svg width="24" height="24" viewBox="0 0 24 24" fill="none" xmlns="http://www.w3.org/2000/svg">
<path fill-rule="evenodd" clip-rule="evenodd" d="M20.5 19V8C20.5 7.72386 20.2761 7.5 20 7.5H17.618C16.6711 7.5 15.8054 6.96499 15.382 6.11803C15.2459 5.84593 15.1275 5.5 14.7639 5.5H9.23607C8.87253 5.5 8.75409 5.84593 8.61803 6.11803C8.19455 6.96499 7.3289 7.5 6.38197 7.5H4C3.72386 7.5 3.5 7.72386 3.5 8V19C3.5 19.2761 3.72386 19.5 4 19.5H20C20.2761 19.5 20.5 19.2761 20.5 19ZM4 6C2.89543 6 2 6.89543 2 8V19C2 20.1046 2.89543 21 4 21H20C21.1046 21 22 20.1046 22 19V8C22 6.89543 21.1046 6 20 6H17.618C17.036 6 16.7797 5.55942 16.5528 5.10557C16.214 4.428 15.5215 4 14.7639 4H9.23607C8.47852 4 7.786 4.428 7.44721 5.10557C7.22029 5.55942 6.96399 6 6.38197 6H4Z"/>
<path fill-rule="evenodd" clip-rule="evenodd" d="M12 16.5C13.933 16.5 15.5 14.933 15.5 13C15.5 11.067 13.933 9.5 12 9.5C10.067 9.5 8.5 11.067 8.5 13C8.5 14.933 10.067 16.5 12 16.5ZM12 18C14.7614 18 17 15.7614 17 13C17 10.2386 14.7614 8 12 8C9.23858 8 7 10.2386 7 13C7 15.7614 9.23858 18 12 18Z"/>
</svg>
