<svg width="24" height="24" viewBox="0 0 24 24" fill="none" xmlns="http://www.w3.org/2000/svg">
<path fill-rule="evenodd" clip-rule="evenodd" d="M6.5 19C8.26324 19 9.72194 17.6961 9.96456 16H15.0354C15.2781 17.6961 16.7368 19 18.5 19C20.2632 19 21.7219 17.6961 21.9646 16H22C23.1046 16 24 15.1045 24 14C24 11.2386 21.7614 8.99998 19 8.99998H18.1651C16.9555 7.70639 15.1828 6.28348 13.5003 5.10133C13.0476 4.78332 12.7928 5.2825 13.2155 5.65245C14.4683 6.74899 15.7225 7.94588 16.5586 8.99998H11V8.33333C11 7.59695 10.403 7 9.66667 7C9.29848 7 9 7.29848 9 7.66667V8.99998C8.44771 8.99998 8 8.55226 8 7.99998V6.80899C8 6.4373 7.60884 6.19556 7.27639 6.36178L4.53816 7.7309C4.18425 7.90785 3.794 7.99998 3.39832 7.99998C1.52148 7.99998 0 9.52146 0 11.3983V14C0 15.1045 0.895431 16 2 16H3.03544C3.27806 17.6961 4.73676 19 6.5 19ZM8.5 15.5C8.5 16.6045 7.60457 17.5 6.5 17.5C5.39543 17.5 4.5 16.6045 4.5 15.5C4.5 14.3954 5.39543 13.5 6.5 13.5C7.60457 13.5 8.5 14.3954 8.5 15.5ZM9.85506 14.5H15.1449C15.5752 13.0542 16.9145 12 18.5 12C20.0855 12 21.4248 13.0542 21.8551 14.5H22C22.2761 14.5 22.5 14.2761 22.5 14C22.5 12.067 20.933 10.5 19 10.5H9C7.75903 10.5 6.72924 9.59579 6.53351 8.41028L5.20898 9.07254C4.64679 9.35364 4.02687 9.49998 3.39832 9.49998C2.34991 9.49998 1.5 10.3499 1.5 11.3983V14C1.5 14.2761 1.72386 14.5 2 14.5H3.14494C3.57521 13.0542 4.91449 12 6.5 12C8.08551 12 9.42479 13.0542 9.85506 14.5ZM20.5 15.5C20.5 16.6045 19.6046 17.5 18.5 17.5C17.3954 17.5 16.5 16.6045 16.5 15.5C16.5 14.3954 17.3954 13.5 18.5 13.5C19.6046 13.5 20.5 14.3954 20.5 15.5Z"/>
</svg>
