<svg width="24" height="24" viewBox="0 0 24 24" fill="none" xmlns="http://www.w3.org/2000/svg">
<path d="M12 15.9146C12.5826 15.7087 13 15.1531 13 14.5C13 13.6716 12.3284 13 11.5 13C10.6716 13 10 13.6716 10 14.5C10 15.1531 10.4174 15.7087 11 15.9146V17.5C11 17.7761 11.2239 18 11.5 18C11.7761 18 12 17.7761 12 17.5V15.9146Z" />
<path fill-rule="evenodd" clip-rule="evenodd" d="M18 9V7.5C18 3.91015 15.0899 1 11.5 1C7.91015 1 5 3.91015 5 7.5V9H4V18C4 20.2091 5.79086 22 8 22H15C17.2091 22 19 20.2091 19 18V9H18ZM6.5 7.5V9H16.5V7.5C16.5 4.73858 14.2614 2.5 11.5 2.5C8.73858 2.5 6.5 4.73858 6.5 7.5ZM17.5 10.5H5.5V18C5.5 19.3807 6.61929 20.5 8 20.5H15C16.3807 20.5 17.5 19.3807 17.5 18V10.5Z" />
</svg>
