<svg width="24" height="24" viewBox="0 0 24 24" fill="none" xmlns="http://www.w3.org/2000/svg">
    <path d="M0.41275 21.5918C0.0314167 21.9276 0 22.167 0 23.1279C0 23.5634 0.5005 24 0.998833 24H11.8744C11.8976 24 11.9206 23.9994 11.9434 23.9982C11.9619 23.9994 11.9804 24 11.9988 24H22.8744C23.4995 24 24 23.5634 24 23.1279C24 22.167 23.9675 21.9276 23.5894 21.5918C23.0088 21.0425 21.6145 20.503 20.3438 20.2463C19.3763 19.9776 18.9224 19.3276 18.8217 18.6267C19.957 17.7524 20.75 15.901 20.75 14.4818C20.75 12.56 19.294 11 17.5 11C15.706 11 14.25 12.56 14.25 14.4818C14.25 15.901 15.0419 17.7524 16.1772 18.6267C16.0765 19.3276 15.6226 19.9776 14.6562 20.2463C13.7095 20.4374 12.6955 20.7852 12.0004 21.1771C11.3041 20.7852 10.2897 20.4374 9.34375 20.2463C8.37633 19.9776 7.92242 19.3276 7.82167 18.6267C8.957 17.7524 9.75 15.901 9.75 14.4818C9.75 12.56 8.294 11 6.5 11C4.706 11 3.25 12.56 3.25 14.4818C3.25 15.901 4.04192 17.7524 5.17725 18.6267C5.0765 19.3276 4.62258 19.9776 3.65625 20.2463C2.38442 20.503 0.99125 21.0425 0.41275 21.5918Z" />
    <path fill-rule="evenodd" clip-rule="evenodd" d="M6 7V1C6 0.5 6.5 1.14441e-05 7 1.14441e-05L17 0C17.5 0 17.9987 0.5 18 1V7C18 7.5 17.5 8 17 8.00134L14 8L12 11L10 8.00134H7C6.5 8 6 7.5 6 7ZM9 2H15V3H9V2ZM13 4H9V5H13V4Z"/>
</svg>
