<svg width="24" height="24" viewBox="0 0 24 24" fill="none" xmlns="http://www.w3.org/2000/svg">
<path fill-rule="evenodd" clip-rule="evenodd" d="M13.9967 12.2916C13.0157 10.5726 14.3912 9.42958 14.9477 8.04658C16.2752 4.60708 13.1387 2.85357 10.2031 3.00957C5.97906 3.41307 3.075 6.52858 3 11.1021C3.033 17.6091 8.4016 20.7456 12.3482 20.9991C16.8318 21.0531 20.1873 18.6891 20.9538 14.2446C21.1908 12.0366 20.4783 11.0961 19.6608 11.1471C18.9903 11.1621 18.6483 11.5641 18.5808 12.0231C18.2538 13.5741 15.4382 14.0796 13.9967 12.2916ZM19.4991 13.5298C18.8426 14.3801 17.778 14.8056 16.8627 14.9013C15.364 15.0581 13.4781 14.4092 12.6939 13.0351C12.3317 12.4003 12.1537 11.7529 12.1532 11.0988C12.152 9.69517 13.0504 8.72941 13.5523 7.49615C13.8507 6.71709 13.8646 5.89309 13.195 5.31613C12.5855 4.79102 11.4987 4.44978 10.3137 4.5059C8.55751 4.68074 7.14471 5.40424 6.15962 6.49662C5.17001 7.59401 4.53555 9.14943 4.50008 11.1106C4.53648 16.5638 8.9965 19.2626 12.4059 19.4996C14.365 19.5162 15.9653 19.008 17.1355 18.1159C18.5149 17.0643 19.465 15.276 19.4991 13.5298Z" />
<path d="M10 7C10 7.55228 9.55228 8 9 8C8.44772 8 8 7.55228 8 7C8 6.44772 8.44772 6 9 6C9.55228 6 10 6.44772 10 7Z" />
<path d="M8 11C8 11.5523 7.55228 12 7 12C6.44772 12 6 11.5523 6 11C6 10.4477 6.44772 10 7 10C7.55228 10 8 10.4477 8 11Z" />
<path d="M9 15C9 15.5523 8.55228 16 8 16C7.44772 16 7 15.5523 7 15C7 14.4477 7.44772 14 8 14C8.55228 14 9 14.4477 9 15Z" />
<path d="M13 17C13 17.5523 12.5523 18 12 18C11.4477 18 11 17.5523 11 17C11 16.4477 11.4477 16 12 16C12.5523 16 13 16.4477 13 17Z" />
</svg>
