<svg width="24" height="24" viewBox="0 0 24 24" fill="none" xmlns="http://www.w3.org/2000/svg">
<path fill-rule="evenodd" clip-rule="evenodd" d="M11 14.5975C11 14.154 11.0145 14.0435 11.1905 13.8885C11.4575 13.635 12.1005 13.386 12.6875 13.2675C13.1335 13.1435 13.343 12.8435 13.3895 12.52C12.8655 12.1165 12.5 11.262 12.5 10.607C12.5 9.72 13.172 9 14 9C14.828 9 15.5 9.72 15.5 10.607C15.5 11.262 15.134 12.1165 14.61 12.52C14.6565 12.8435 14.866 13.1435 15.3125 13.2675C15.899 13.386 16.5425 13.635 16.8105 13.8885C16.985 14.0435 17 14.154 17 14.5975C17 14.7985 16.769 15 16.4805 15H11.461C11.231 15 11 14.7985 11 14.5975Z" />
<path fill-rule="evenodd" clip-rule="evenodd" d="M3 3C3 1.89543 3.89543 1 5 1H19C20.1046 1 21 1.89543 21 3V21C21 22.1046 20.1046 23 19 23H5C3.89543 23 3 22.1046 3 21V3ZM9 2.5H19C19.2761 2.5 19.5 2.72386 19.5 3V21C19.5 21.2761 19.2761 21.5 19 21.5H9V2.5ZM7.5 2.5H5C4.72386 2.5 4.5 2.72386 4.5 3V21C4.5 21.2761 4.72386 21.5 5 21.5H7.5V2.5Z" />
</svg>

