<svg width="24" height="24" viewBox="0 0 24 24" fill="none" xmlns="http://www.w3.org/2000/svg">
<path fill-rule="evenodd" clip-rule="evenodd" d="M12 7C10.8954 7 10 7.89543 10 9V18C10 19.1046 10.8954 20 12 20H18C19.1046 20 20 19.1046 20 18V9C20 7.89543 19.1046 7 18 7H12ZM18 8.5H12C11.7239 8.5 11.5 8.72386 11.5 9V18C11.5 18.2761 11.7239 18.5 12 18.5H18C18.2761 18.5 18.5 18.2761 18.5 18V9C18.5 8.72386 18.2761 8.5 18 8.5Z"/>
<path d="M6 5.5H12C12.2761 5.5 12.5 5.72386 12.5 6H14C14 4.89543 13.1046 4 12 4H6C4.89543 4 4 4.89543 4 6V15C4 16.1046 4.89543 17 6 17H9V15.5H6C5.72386 15.5 5.5 15.2761 5.5 15V6C5.5 5.72386 5.72386 5.5 6 5.5Z"/>
</svg>
