<svg width="24" height="24" viewBox="0 0 24 24" fill="none" xmlns="http://www.w3.org/2000/svg">
<path fill-rule="evenodd" clip-rule="evenodd" d="M5.5 12C5.5 16.6945 9.30558 20.5001 14 20.5001C14.8879 20.5001 15.8636 20.3391 16.7962 20.0542C13.1908 17.6892 10.5 13.7027 10.5 9.00005C10.5 7.12437 11.1081 5.35335 11.892 3.81785C8.29474 4.9796 5.5 8.34794 5.5 12ZM12.9709 2.01877C13.7613 1.891 14.2184 2.77541 13.8059 3.46158C12.805 5.12654 12 7.03853 12 9.00005C12 13.4509 14.7709 17.2576 18.4603 19.309C19.1618 19.699 19.2542 20.6956 18.5184 21.0161C17.1169 21.6263 15.4839 22.0001 14 22.0001C8.47715 22.0001 4 17.5229 4 12C4 7.07853 8.13621 2.80035 12.9709 2.01877Z"/>
</svg>
