<svg width="24" height="24" viewBox="0 0 24 24" fill="none" xmlns="http://www.w3.org/2000/svg">
<path fill-rule="evenodd" clip-rule="evenodd" d="M5 3C3.89543 3 3 3.89543 3 5V19C3 20.1046 3.89543 21 5 21C5 21.5523 5.44772 22 6 22H7C7.55228 22 8 21.5523 8 21H16C16 21.5523 16.4477 22 17 22H18C18.5523 22 19 21.5523 19 21C20.1046 21 21 20.1046 21 19V5C21 3.89543 20.1046 3 19 3H5ZM19 4.5H5C4.72386 4.5 4.5 4.72386 4.5 5V19C4.5 19.2761 4.72386 19.5 5 19.5H19C19.2761 19.5 19.5 19.2761 19.5 19V5C19.5 4.72386 19.2761 4.5 19 4.5Z"/>
<path fill-rule="evenodd" clip-rule="evenodd" d="M18 12C18 15.3137 15.3137 18 12 18C8.68629 18 6 15.3137 6 12C6 8.68629 8.68629 6 12 6C15.3137 6 18 8.68629 18 12ZM14.6074 15.6681C13.8718 16.1919 12.9719 16.5 12 16.5C11.0281 16.5 10.1282 16.1919 9.3926 15.6681L11.2189 13.8417C11.4589 13.9436 11.7229 14 12 14C12.2771 14 12.5411 13.9436 12.7811 13.8417L14.6074 15.6681ZM10.1583 11.2189C10.0564 11.4589 10 11.7229 10 12C10 12.2771 10.0564 12.5411 10.1583 12.7811L8.33194 14.6074C7.80809 13.8718 7.5 12.9719 7.5 12C7.5 11.0281 7.80809 10.1282 8.33194 9.3926L10.1583 11.2189ZM11.2189 10.1583L9.3926 8.33194C10.1282 7.80809 11.0281 7.5 12 7.5C12.9719 7.5 13.8718 7.80809 14.6074 8.33194L12.7811 10.1583C12.5411 10.0564 12.2771 10 12 10C11.7229 10 11.4589 10.0564 11.2189 10.1583ZM13.8417 12.7811L15.6681 14.6074C16.1919 13.8718 16.5 12.9719 16.5 12C16.5 11.0281 16.1919 10.1282 15.6681 9.3926L13.8417 11.2189C13.9436 11.4589 14 11.7229 14 12C14 12.2771 13.9436 12.5411 13.8417 12.7811Z" />
</svg>
