<svg width="24" height="24" viewBox="0 0 24 24" fill="none" xmlns="http://www.w3.org/2000/svg">
<path fill-rule="evenodd" clip-rule="evenodd" d="M19.0001 5.5H9.69425C9.01745 5.5 8.36956 5.77441 7.89865 6.26051L2.67555 11.6521C2.48771 11.846 2.48771 12.154 2.67555 12.3479L7.89865 17.7395C8.36956 18.2256 9.01745 18.5 9.69425 18.5H19.0001C20.3808 18.5 21.5001 17.3807 21.5001 16V8C21.5001 6.61929 20.3808 5.5 19.0001 5.5ZM9.69425 4C8.61137 4 7.57475 4.43905 6.82129 5.21682L1.59819 10.6084C0.846828 11.384 0.846828 12.616 1.59819 13.3916L6.82129 18.7832C7.57475 19.561 8.61137 20 9.69425 20H19.0001C21.2092 20 23.0001 18.2091 23.0001 16V8C23.0001 5.79086 21.2092 4 19.0001 4H9.69425Z" />
<path d="M12.5303 8.46967C12.2374 8.17678 11.7626 8.17678 11.4697 8.46967C11.1768 8.76256 11.1768 9.23744 11.4697 9.53033L13.9393 12L11.4697 14.4697C11.1768 14.7626 11.1768 15.2374 11.4697 15.5303C11.7626 15.8232 12.2374 15.8232 12.5303 15.5303L15 13.0607L17.4697 15.5303C17.7626 15.8232 18.2374 15.8232 18.5303 15.5303C18.8232 15.2374 18.8232 14.7626 18.5303 14.4697L16.0607 12L18.5303 9.53033C18.8232 9.23744 18.8232 8.76256 18.5303 8.46967C18.2374 8.17678 17.7626 8.17678 17.4697 8.46967L15 10.9393L12.5303 8.46967Z" />
</svg>
