<svg width="24" height="24" viewBox="0 0 24 24" fill="none" xmlns="http://www.w3.org/2000/svg">
<path d="M15.2803 14.2197C14.9874 13.9268 14.5126 13.9268 14.2197 14.2197C13.9268 14.5126 13.9268 14.9874 14.2197 15.2803L16.9393 18L14.2197 20.7197C13.9268 21.0126 13.9268 21.4874 14.2197 21.7803C14.5126 22.0732 14.9874 22.0732 15.2803 21.7803L18 19.0607L20.7197 21.7803C21.0126 22.0732 21.4874 22.0732 21.7803 21.7803C22.0732 21.4874 22.0732 21.0126 21.7803 20.7197L19.0607 18L21.7803 15.2803C22.0732 14.9874 22.0732 14.5126 21.7803 14.2197C21.4874 13.9268 21.0126 13.9268 20.7197 14.2197L18 16.9393L15.2803 14.2197Z" />
<path d="M5 11H7V13H5V11Z" />
<path d="M5 14H7V16H5V14Z" />
<path d="M11 8H13V10H11V8Z" />
<path d="M11 11H13V13H11V11Z" />
<path d="M8 8H10V10H8V8Z" />
<path d="M14 11H16V13H14V11Z" />
<path d="M8 11H10V13H8V11Z" />
<path d="M8 14H10V16H8V14Z" />
<path d="M11 14H13V16H11V14Z" />
<path d="M14 8H16V10H14V8Z"/>
<path fill-rule="evenodd" clip-rule="evenodd" d="M17.5 6.5V13H19V4C19 2.89543 18.1046 2 17 2H4C2.89543 2 2 2.89543 2 4V17C2 18.1046 2.89543 19 4 19H13V17.5H4C3.72386 17.5 3.5 17.2761 3.5 17V6.5H17.5ZM17 3.5H4C3.72386 3.5 3.5 3.72386 3.5 4V5H17.5V4C17.5 3.72386 17.2761 3.5 17 3.5Z"/>
</svg>
