<svg width="24" height="24" viewBox="0 0 24 24" fill="none" xmlns="http://www.w3.org/2000/svg">
<path fill-rule="evenodd" clip-rule="evenodd" d="M14 8C12.8954 8 12 8.89543 12 10V18C12 19.1046 12.8954 20 14 20H19C20.1046 20 21 19.1046 21 18V10C21 8.89543 20.1046 8 19 8H14ZM19 9.5H14C13.7239 9.5 13.5 9.72386 13.5 10V18C13.5 18.2761 13.7239 18.5 14 18.5H19C19.2761 18.5 19.5 18.2761 19.5 18V10C19.5 9.72386 19.2761 9.5 19 9.5Z" />
<path d="M5 5.5H16C16.2761 5.5 16.5 5.72386 16.5 6V7H18V6C18 4.89543 17.1046 4 16 4H5C3.89543 4 3 4.89543 3 6V13C3 14.1046 3.89543 15 5 15H8V16.5H7C6.58579 16.5 6.25 16.8358 6.25 17.25C6.25 17.6642 6.58579 18 7 18H11V16.5H9.5V15H11V13.5H5C4.72386 13.5 4.5 13.2761 4.5 13V6C4.5 5.72386 4.72386 5.5 5 5.5Z" />
</svg>
