<svg width="24" height="24" viewBox="0 0 24 24" fill="none" xmlns="http://www.w3.org/2000/svg">
<path d="M18.6075 13.4275C19.0692 12.8978 19.6098 12.3284 20.243 11.7142C21.7052 10.2445 20.9615 7.47108 18.7675 5.27248C16.569 3.07685 13.7469 2.27978 12.2773 3.74206C11.6671 4.37359 11.0921 4.91328 10.5501 5.37461L11.6142 6.43811C12.1652 5.96384 12.7408 5.42029 13.3431 4.79767C13.5864 4.56152 14.049 4.38176 14.8854 4.59079C15.7307 4.80208 16.7553 5.38314 17.7067 6.33299C18.6551 7.28366 19.2191 8.29209 19.418 9.11787C19.6134 9.92909 19.4364 10.3928 19.1868 10.649C18.564 11.2536 18.0196 11.824 17.5442 12.3648L18.6075 13.4275Z" />
<path fill-rule="evenodd" clip-rule="evenodd" d="M16.1857 17.3607C15.907 18.2559 15.8877 18.9881 15.8701 19.6583C15.8504 20.4059 15.8328 21.0762 15.4594 21.8094C14.5795 22.6909 10.8951 20.4315 7.23299 16.7633C3.56791 13.0994 1.31019 9.41189 2.19016 8.53038C2.58147 8.13839 3.06455 8.1347 3.65605 8.13019C4.23935 8.12574 4.92919 8.12688 5.7714 7.95763C6.02374 7.90692 6.28961 7.83984 6.57009 7.75056L7.7405 8.92032C7.14954 9.16124 6.59344 9.32242 6.06693 9.42823C5.27559 9.58726 4.4671 9.62394 3.66193 9.63019C3.78885 9.94015 3.99157 10.3387 4.28635 10.82C5.12099 12.1828 6.51924 13.9288 8.29347 15.7024L8.29454 15.7035C10.0674 17.4793 11.8122 18.8787 13.1738 19.7138C13.6415 20.0007 14.0309 20.2003 14.3365 20.3278C14.3546 20.134 14.3631 19.9058 14.3706 19.6189C14.4018 18.4342 14.5593 17.2954 15.0158 16.1915L16.1857 17.3607Z" />
<path fill-rule="evenodd" clip-rule="evenodd" d="M4.46967 2.46967C4.76256 2.17678 5.23744 2.17678 5.53033 2.46967L21.5303 18.4697C21.8232 18.7626 21.8232 19.2374 21.5303 19.5303C21.2374 19.8232 20.7626 19.8232 20.4697 19.5303L4.46967 3.53033C4.17678 3.23744 4.17678 2.76256 4.46967 2.46967Z" />
<path d="M5.02912 14L9.9997 18.9707C9.36369 19.6066 8.48514 19.9999 7.51473 19.9999C5.5736 19.9999 4 18.4262 4 16.485C4 15.5146 4.39327 14.636 5.02912 14Z" />
<path d="M19.7995 7.79983C20.5221 7.33353 20.9996 6.52778 20.9996 5.61194C20.9996 4.16941 19.815 3 18.3537 3C17.4382 3 16.6313 3.459 16.1562 4.1566L19.7995 7.79983Z" />
</svg>
