<svg width="24" height="24" viewBox="0 0 24 24" fill="none" xmlns="http://www.w3.org/2000/svg">
<path d="M6.00238 10.5027C6.00238 10.7788 6.22624 11.0027 6.50238 11.0027H8.52638C8.80252 11.0027 9.02638 10.7788 9.02638 10.5027C9.02638 10.2265 8.80252 10.0027 8.52638 10.0027H6.50238C6.22624 10.0027 6.00238 10.2265 6.00238 10.5027Z" />
<path d="M6.50769 13.0027C6.23155 13.0027 6.00769 12.7788 6.00769 12.5027C6.00769 12.2265 6.23155 12.0027 6.50769 12.0027H11.5264C11.8025 12.0027 12.0264 12.2265 12.0264 12.5027C12.0264 12.7788 11.8025 13.0027 11.5264 13.0027H6.50769Z" />
<path fill-rule="evenodd" clip-rule="evenodd" d="M6.02637 19.0027V20.5027C6.02637 20.7788 5.80251 21.0027 5.52637 21.0027C5.25022 21.0027 5.02637 20.7788 5.02637 20.5027V17H3.77196C3.34562 17 3 16.6471 3 16.2117V7.78826C3 7.35292 3.34562 7 3.77196 7H5.02637V6.00269C5.02637 5.4504 5.47408 5.00269 6.02637 5.00269V3.50269C6.02637 3.22654 6.25022 3.00269 6.52637 3.00269C6.80251 3.00269 7.02637 3.22654 7.02637 3.50269V7H8.02637V6.00269C8.02637 5.4504 8.47408 5.00269 9.02637 5.00269V3.50269C9.02637 3.22654 9.25022 3.00269 9.52637 3.00269C9.80251 3.00269 10.0264 3.22654 10.0264 3.50269V7H11.0264V6.00269C11.0264 5.4504 11.4741 5.00269 12.0264 5.00269V3.50269C12.0264 3.22654 12.2502 3.00269 12.5264 3.00269C12.8025 3.00269 13.0264 3.22654 13.0264 3.50269V7H14.0264V6.00269C14.0264 5.4504 14.4741 5.00269 15.0264 5.00269V3.50269C15.0264 3.22654 15.2502 3.00269 15.5264 3.00269C15.8025 3.00269 16.0264 3.22654 16.0264 3.50269V7H17.0264V6.00269C17.0264 5.4504 17.4741 5.00269 18.0264 5.00269V3.50269C18.0264 3.22654 18.2502 3.00269 18.5264 3.00269C18.8025 3.00269 19.0264 3.22654 19.0264 3.50269V7H20.228C20.6544 7 21 7.35292 21 7.78826V16.2117C21 16.6471 20.6544 17 20.228 17H19.0264V18.0027C19.0264 18.555 18.5787 19.0027 18.0264 19.0027V20.5027C18.0264 20.7788 17.8025 21.0027 17.5264 21.0027C17.2502 21.0027 17.0264 20.7788 17.0264 20.5027V17H16.0264V18.0027C16.0264 18.555 15.5787 19.0027 15.0264 19.0027V20.5027C15.0264 20.7788 14.8025 21.0027 14.5264 21.0027C14.2502 21.0027 14.0264 20.7788 14.0264 20.5027V17H13.0264V18.0027C13.0264 18.555 12.5787 19.0027 12.0264 19.0027V20.5027C12.0264 20.7788 11.8025 21.0027 11.5264 21.0027C11.2502 21.0027 11.0264 20.7788 11.0264 20.5027V17H10.0264V18.0027C10.0264 18.555 9.57865 19.0027 9.02637 19.0027V20.5027C9.02637 20.7788 8.80251 21.0027 8.52637 21.0027C8.25022 21.0027 8.02637 20.7788 8.02637 20.5027V17H7.02637V18.0027C7.02637 18.555 6.57865 19.0027 6.02637 19.0027ZM4.54392 15.4235V8.57651H19.4561V15.4235H4.54392Z" />
</svg>
