<svg width="150" height="150" viewBox="0 0 150 150" fill="none" xmlns="http://www.w3.org/2000/svg">
<g clip-path="url(#clip0_6114_131044)">
<path fill-rule="evenodd" clip-rule="evenodd" d="M0 3C0 1.34314 1.34315 0 3 0H147C148.657 0 150 1.34315 150 3V147C150 148.657 148.657 150 147 150H3C1.34314 150 0 148.657 0 147V3ZM8.33333 120.828V8.33333H141.667V126.289L115.352 91.6156C111.907 87.0768 105.2 86.747 101.327 90.9261L100.108 92.241C96.3141 96.3348 89.7726 96.1159 86.2605 91.7774L64.8461 65.3243C61.1068 60.7052 54.0281 60.8106 50.428 65.5391L8.33333 120.828Z"/>
<circle cx="107.917" cy="41.25" r="18.75" />
</g>
<defs>
<clipPath id="clip0_6114_131044">
<rect width="150" height="150"/>
</clipPath>
</defs>
</svg>
