<svg width="200" height="200" viewBox="0 0 200 200" fill="none" xmlns="http://www.w3.org/2000/svg">
<path opacity="0.5" fill-rule="evenodd" clip-rule="evenodd" d="M128.188 146.357C129.273 144.55 131.226 143.444 133.333 143.444H177.778C186.737 143.444 194 136.182 194 127.222V27.2222C194 18.2629 186.737 11 177.778 11H22.2222C13.2629 11 6 18.2629 6 27.2222V127.222C6 136.182 13.2629 143.444 22.2222 143.444H66.6667C68.7742 143.444 70.7273 144.55 71.8116 146.357L95.6173 186.034C97.6024 189.342 102.398 189.342 104.383 186.034L128.188 146.357ZM133.333 149.444H177.778C190.051 149.444 200 139.495 200 127.222V27.2222C200 14.9492 190.051 5 177.778 5H22.2222C9.94923 5 0 14.9492 0 27.2222V127.222C0 139.495 9.94923 149.444 22.2222 149.444H66.6667L90.4723 189.12C94.7879 196.313 105.212 196.313 109.528 189.12L133.333 149.444Z" />
<path opacity="0.5" fill-rule="evenodd" clip-rule="evenodd" d="M52.8376 101.447C52.8376 99.7899 54.1808 98.4467 55.8376 98.4467H111.393C113.05 98.4467 114.393 99.7899 114.393 101.447C114.393 103.104 113.05 104.447 111.393 104.447H55.8376C54.1808 104.447 52.8376 103.104 52.8376 101.447Z" />
<path opacity="0.5" fill-rule="evenodd" clip-rule="evenodd" d="M52.8376 60.5555C52.8376 58.8987 54.1808 57.5555 55.8376 57.5555H144.727C146.383 57.5555 147.727 58.8987 147.727 60.5555C147.727 62.2124 146.383 63.5555 144.727 63.5555H55.8376C54.1808 63.5555 52.8376 62.2124 52.8376 60.5555Z" />
<path opacity="0.5" fill-rule="evenodd" clip-rule="evenodd" d="M52.8376 81.1422C52.8376 79.4853 54.1808 78.1422 55.8376 78.1422H144.727C146.383 78.1422 147.727 79.4853 147.727 81.1422C147.727 82.799 146.383 84.1422 144.727 84.1422H55.8376C54.1808 84.1422 52.8376 82.799 52.8376 81.1422Z" />
</svg>
