<svg width="24" height="24" viewBox="0 0 24 24" fill="none" xmlns="http://www.w3.org/2000/svg">
<path fill-rule="evenodd" clip-rule="evenodd" d="M5 5C5 3.89543 5.89543 3 7 3H13.4751C14.0231 3 14.5471 3.22486 14.9246 3.62203L18.4496 7.33005C18.8029 7.7018 19 8.1951 19 8.70802V19C19 20.1046 18.1046 21 17 21H7C5.89543 21 5 20.1046 5 19V5ZM17 19.5H7C6.72386 19.5 6.5 19.2761 6.5 19V5C6.5 4.72386 6.72386 4.5 7 4.5H12.25V7C12.25 8.51878 13.4812 9.75 15 9.75H17.5V19C17.5 19.2761 17.2761 19.5 17 19.5ZM17.2545 8.25L13.8375 4.65551C13.811 4.62763 13.7816 4.60315 13.75 4.58235V7C13.75 7.69036 14.3096 8.25 15 8.25H17.2545Z"/>
</svg>
