<svg width="24" height="24" viewBox="0 0 24 24" fill="none" xmlns="http://www.w3.org/2000/svg">
<path fill-rule="evenodd" clip-rule="evenodd" d="M22 18.5C22 19.3284 21.3284 20 20.5 20H3.5C2.67157 20 2 19.3284 2 18.5V5C2 3.89543 2.89543 3 4 3H8.92963C9.59834 3 10.2228 3.3342 10.5937 3.8906L11.7031 5.5547C11.8886 5.8329 12.2008 6 12.5352 6L20.5 6C21.3284 6 22 6.67157 22 7.5V18.5ZM20.5 18.5H3.5L3.5 5C3.5 4.72386 3.72386 4.5 4 4.5L8.92963 4.5C9.09681 4.5 9.25292 4.58355 9.34566 4.72265L10.4551 6.38675C10.9187 7.08225 11.6993 7.5 12.5352 7.5H20.5V18.5Z" />
</svg>
