<svg width="24" height="24" viewBox="0 0 24 24" fill="none" xmlns="http://www.w3.org/2000/svg">
<path d="M18.0039 19.6014C18.0039 20.4269 17.2933 21.0054 16.5039 21.0054C15.7154 21.0054 15.0039 20.4241 15.0039 19.6C15.0039 18.9191 15.1572 17.9505 15.3381 16.8082C15.6902 14.5843 16.1465 11.7016 15.7787 9C14.8 9 14 8.20614 14 7.22549V3H14.9987V7.22549C14.9987 7.65244 15.3449 7.99933 15.771 7.99933H16V3H17V7.99933H17.229C17.6538 7.99933 18.0013 7.65244 18.0013 7.22549V3H19V7.22549C19 8.20614 18.2063 9 17.229 9C16.8605 11.7016 17.3171 14.5842 17.6694 16.8086C17.8504 17.9511 18.0039 18.92 18.0039 19.6014Z" />
<path fill-rule="evenodd" clip-rule="evenodd" d="M7.50399 21C6.71582 21 6.00639 20.4179 6.00639 19.5949C6.00639 17.9045 6.95021 14.4383 6.91427 10.9428C5.81603 10.7109 5 9.77633 5 7.88994C5 5.68227 6.12087 3 7.5 3C8.87912 3 10 5.68227 10 7.88994C10 9.77233 9.1853 10.7069 8.09238 10.9415C8.05511 14.4383 9.0016 17.9045 9.0016 19.5962C9.0016 20.4208 8.29306 21 7.50399 21ZM8.88978 8.28988C8.97364 7.91394 8.88445 7.62998 8.82854 7.27003C8.82854 7.20471 8.77263 7.15138 8.7074 7.15138C8.64217 7.15138 8.58892 7.20737 8.58892 7.2727C8.4385 8.06991 7.99787 9.28173 7.1206 9.5137C7.05538 9.51503 7.00479 9.57102 7.00612 9.63635C7.00745 9.70167 7.06336 9.75233 7.12859 9.751C8.0844 9.99496 8.7074 9.10709 8.88978 8.28988Z" />
</svg>
