<svg width="24" height="24" viewBox="0 0 24 24" fill="none" xmlns="http://www.w3.org/2000/svg">
<path fill-rule="evenodd" clip-rule="evenodd" d="M17.0986 10.1927C17.8646 10.1927 18.566 10.5675 19.0605 11.0613C20.7629 12.7616 19.8654 15.8261 19.0928 17.7525C18.7603 18.5815 18.3464 19.3772 17.8842 19.9637C17.4355 20.533 16.7725 20.9863 16.0137 20.9901C14.4625 20.9979 12.833 20.9503 11.2691 20.4758C9.75272 20.0156 8.38144 19.962 6.80193 19.962C6.22065 19.962 5.6213 19.8426 5.26724 19.3348C5.02883 18.9929 4.99983 18.5841 5 18.1812L5.00001 13.0207C5.00001 12.3345 5.23138 11.7756 5.74303 11.463C5.99317 11.3101 6.2559 11.2908 6.53398 11.2703C6.81353 11.2497 7.1086 11.2279 7.42198 11.0683C7.77597 10.903 8.23532 10.6161 8.7397 10.1851C9.74494 9.32619 10.8947 7.92395 11.724 5.86733L11.7262 5.8622C11.8227 5.62773 11.8919 5.3856 11.9611 5.14356C12.0516 4.82706 12.1421 4.5107 12.2934 4.21187C12.7178 3.37386 13.5247 2.94643 14.4571 3.00641C15.4329 3.01098 15.7542 4.02146 15.8183 4.82239C15.9325 6.24696 15.5607 7.56562 15.1847 8.89942C15.0666 9.31824 14.9481 9.73854 14.8441 10.1641C15.6156 10.1927 16.5198 10.1927 17.0986 10.1927ZM17.3165 18C17.0607 18.558 16.7286 19.1192 16.2579 19.4158C15.327 20.0023 12.46 19.225 11.7181 18.9999C10.887 18.7477 10.034 18.4195 8.86127 18.4195C8.10941 18.4195 6.54837 18.4036 6.54837 18.4036C6.54557 16.5237 6.54296 14.6438 6.54296 12.7639C7.83431 12.5821 8.72796 12.2252 9.74377 11.3572C10.9337 10.3405 12.232 8.73589 13.1558 6.44596C13.245 6.22861 13.3083 5.99915 13.3717 5.76953C13.4531 5.47413 13.5347 5.17848 13.6716 4.90806C13.7918 4.67085 13.935 4.43332 14.2208 4.54145C14.5066 4.64959 14.4138 6.00755 14.3135 6.57277C14.208 7.16758 13.9953 7.70204 13.7894 8.21917C13.4981 8.95102 13.2207 9.64817 13.2804 10.4326C13.3011 10.7044 13.3973 10.9925 13.6231 11.2355C14.1975 11.8534 15.2332 11.8002 16.0415 11.7586C16.1974 11.7506 16.345 11.743 16.479 11.7408L16.4966 11.7405C16.9955 11.7321 17.5387 11.723 17.9684 12.1521C18.2022 12.3856 18.3505 12.6756 18.4343 13H15.5C15.2239 13 15 13.2239 15 13.5C15 13.7761 15.2239 14 15.5 14H18.5162C18.4984 14.3279 18.4455 14.6664 18.372 15H15.4987C15.2233 15 15 15.2239 15 15.5C15 15.7761 15.2233 16 15.4987 16H18.0949C17.9729 16.3729 17.8428 16.7154 17.7303 17H15.4987C15.2233 17 15 17.2239 15 17.5C15 17.7761 15.2233 18 15.4987 18H17.3165Z" />
</svg>
