<svg width="24" height="24" viewBox="0 0 24 24" fill="none" xmlns="http://www.w3.org/2000/svg">
<path fill-rule="evenodd" clip-rule="evenodd" d="M4 11.4969C4 8.99384 7.77752 6.00002 11.984 6C16.1905 5.99998 20 8.99384 20 11.4969C20 14 16.1905 17 12.0128 17C7.83515 17 4 14 4 11.4969ZM12.0128 16C10.1536 16 8.35129 15.3281 7.02285 14.3747C5.64762 13.3877 5.0019 12.2749 5 11.5003C5.50091 14.5 18.5 14.4999 18.9999 11.5C18.9984 12.2772 18.3559 13.3901 16.9883 14.3759C15.6669 15.3284 13.8716 16 12.0128 16Z"/>
</svg>
