<svg width="24" height="24" viewBox="0 0 24 24" fill="none" xmlns="http://www.w3.org/2000/svg">
<path fill-rule="evenodd" clip-rule="evenodd" d="M13.0024 7.00391C13.5544 7.00391 14.0024 7.67591 14.0024 8.50391C14.0024 9.33191 13.5544 10.0039 13.0024 10.0039C12.4504 10.0039 12.0024 9.33191 12.0024 8.50391C12.0024 7.67591 12.4504 7.00391 13.0024 7.00391Z" />
<path fill-rule="evenodd" clip-rule="evenodd" d="M4.5 12C4.22386 12 4 12.2239 4 12.5C4 12.7761 4.22386 13 4.5 13H5.21683C5.64936 13 6 13.3506 6 13.7832C6 14.6886 5.5475 15.5341 4.79416 16.0363L4.07979 16.5125C3.40392 16.9631 3 17.7264 3 18.5356C3 19.8876 4.09536 21 5.45416 21H7.89445C9.06468 21 10.1575 20.4151 10.8066 19.4415C11.3574 18.6153 12.1229 18 13.1539 18L12.5227 19.641C12.2708 20.296 12.7543 21 13.456 21H16.5412C17.2438 21 17.7273 20.2946 17.4739 19.6394L16.7191 17.6871C19.194 16.7624 21 13.893 21 10.5C21 6.36021 18.3116 3 15 3C11.6884 3 9 6.36021 9 10.5C9 13.368 10.2903 15.8618 12.1842 17.1234C11.1943 17.3936 10.5247 18.0616 9.97457 18.8868C9.51091 19.5822 8.73033 20 7.89445 20H5.45416C4.65445 20 4 19.3421 4 18.5356C4 18.0576 4.23938 17.608 4.63449 17.3446L5.34886 16.8684C6.3804 16.1807 7 15.0229 7 13.7832C7 12.7984 6.20165 12 5.21683 12H4.5ZM14.1841 19.5L14.5687 18.5H15.4252L15.8118 19.5H14.1841ZM15 4.5C17.1882 4.5 19.5 6.85903 19.5 10.5C19.5 14.141 17.1882 16.5 15 16.5C12.8118 16.5 10.5 14.141 10.5 10.5C10.5 6.85903 12.8118 4.5 15 4.5Z" />
</svg>
