<svg width="24" height="24" viewBox="0 0 24 24" fill="none" xmlns="http://www.w3.org/2000/svg">
<path d="M4.5 8.5L4.5 17.5L19.5 17.5V8.5L17 8.5V7L19.5 7C20.3284 7 21 7.67157 21 8.5V17.5C21 18.3284 20.3284 19 19.5 19L4.5 19C3.67157 19 3 18.3284 3 17.5L3 8.5C3 7.67157 3.67157 7 4.5 7L7 7V8.5L4.5 8.5Z" />
<path fill-rule="evenodd" clip-rule="evenodd" d="M8.96967 10.4697C8.67678 10.7626 8.67678 11.2374 8.96967 11.5303L11.4697 14.0303C11.6103 14.171 11.8011 14.25 12 14.25C12.1989 14.25 12.3897 14.171 12.5303 14.0303L15.0303 11.5303C15.3232 11.2374 15.3232 10.7626 15.0303 10.4697C14.7374 10.1768 14.2626 10.1768 13.9697 10.4697L12.75 11.6893L12.75 5C12.75 4.58579 12.4142 4.25 12 4.25C11.5858 4.25 11.25 4.58579 11.25 5L11.25 11.6893L10.0303 10.4697C9.73744 10.1768 9.26256 10.1768 8.96967 10.4697Z" />
</svg>
