<svg width="24" height="24" viewBox="0 0 24 24" fill="none" xmlns="http://www.w3.org/2000/svg">
<path fill-rule="evenodd" clip-rule="evenodd" d="M12 21C16.9706 21 21 16.9706 21 12C21 7.02944 16.9706 3 12 3C7.02944 3 3 7.02944 3 12C3 16.9706 7.02944 21 12 21ZM10.4571 4.65886C10.7167 4.60457 10.9813 4.56371 11.25 4.53703V6.70665C10.6601 6.63821 10.0775 6.48874 9.51968 6.25824C9.79222 5.71607 10.1047 5.18214 10.4571 4.65886ZM6.95064 6.45431C7.15646 6.62173 7.36849 6.77744 7.58586 6.92145C7.03872 8.33522 6.72519 9.78964 6.64527 11.25H4.53703C4.72515 9.35529 5.61839 7.66802 6.95064 6.45431ZM4.53703 12.75C4.71183 14.5105 5.49543 16.092 6.67434 17.2808C6.91948 17.0626 7.17453 16.862 7.43789 16.679C6.98194 15.3914 6.71773 14.0731 6.64529 12.75H4.53703ZM8.14781 12.75C8.21357 13.8197 8.42007 14.8856 8.7673 15.9319C9.56196 15.5805 10.401 15.3649 11.25 15.2852V12.75H8.14781ZM12.75 12.75V15.2852C13.6202 15.3669 14.4798 15.5913 15.292 15.9584C15.6232 14.9251 15.8136 13.8459 15.8623 12.75H12.75ZM15.8409 11.25H12.75V8.21484C13.5388 8.14073 14.3188 7.94942 15.0627 7.64093C15.494 8.82205 15.753 10.038 15.8409 11.25ZM17.3639 12.75C17.3107 14.1063 17.0633 15.4445 16.6205 16.7199C16.8632 16.8918 17.0987 17.0788 17.3257 17.2808C18.5046 16.092 19.2882 14.5105 19.463 12.75H17.3639ZM19.463 11.25H17.3441C17.2488 9.79475 16.933 8.33739 16.3983 6.93195C16.6212 6.78502 16.8385 6.62581 17.0494 6.45431C18.3816 7.66802 19.2749 9.35529 19.463 11.25ZM11.25 11.25H8.14779C8.22265 10.0319 8.48002 8.81858 8.91992 7.63372C9.66905 7.94644 10.4551 8.14015 11.25 8.21484V11.25ZM7.84998 18.2482C7.90874 18.1995 7.96814 18.152 8.02815 18.1056C8.08639 18.2283 8.14644 18.3505 8.20831 18.4723C8.08663 18.4009 7.96714 18.3261 7.84998 18.2482ZM11.25 16.7934C10.5894 16.87 9.93796 17.0482 9.32028 17.3281C9.6365 18.0127 10.0155 18.6853 10.4572 19.3411C10.7168 19.3954 10.9813 19.4363 11.25 19.463V16.7934ZM12.75 19.463V16.7934C13.4333 16.8726 14.1068 17.0606 14.7433 17.3573C14.4189 18.0502 14.0249 18.7135 13.5618 19.3372C13.2961 19.3934 13.0253 19.4356 12.75 19.463ZM15.8997 18.4077C15.9435 18.3221 15.9864 18.2361 16.0283 18.1497C16.0692 18.182 16.1097 18.2148 16.15 18.2481C16.0677 18.3029 15.9842 18.3561 15.8997 18.4077ZM15.7924 5.52807L15.7845 5.53374L15.7772 5.51918L15.7924 5.52807ZM14.4718 6.26175C13.9166 6.49026 13.3369 6.63856 12.75 6.70665V4.53703C13.0185 4.56369 13.2829 4.60452 13.5423 4.65874C13.8915 5.17888 14.2013 5.71462 14.4718 6.26175Z"/>
</svg>
