<svg width="32" height="32" viewBox="0 0 32 32" fill="none" xmlns="http://www.w3.org/2000/svg">
<path fill-rule="evenodd" clip-rule="evenodd" d="M23 9.5H9C7.61929 9.5 6.5 10.6193 6.5 12V21C6.5 22.3807 7.61929 23.5 9 23.5H23C24.3807 23.5 25.5 22.3807 25.5 21V12C25.5 10.6193 24.3807 9.5 23 9.5ZM9 8C6.79086 8 5 9.79086 5 12V21C5 23.2091 6.79086 25 9 25H23C25.2091 25 27 23.2091 27 21V12C27 9.79086 25.2091 8 23 8H9Z" />
<circle cx="10.75" cy="14" r="1" />
<circle cx="10.75" cy="17" r="1" />
<circle cx="14.25" cy="14" r="1" />
<circle cx="14.25" cy="17" r="1" />
<circle cx="17.75" cy="14" r="1" />
<circle cx="17.75" cy="17" r="1" />
<circle cx="21.25" cy="14" r="1" />
<circle cx="21.25" cy="17" r="1" />
<path d="M12 20.5C12 20.2239 12.2239 20 12.5 20H19.5C19.7761 20 20 20.2239 20 20.5C20 20.7761 19.7761 21 19.5 21H12.5C12.2239 21 12 20.7761 12 20.5Z"/>
</svg>
