<svg width="24" height="24" viewBox="0 0 24 24" fill="none" xmlns="http://www.w3.org/2000/svg">
<g clip-path="url(#clip0_6243_233430)">
<path fill-rule="evenodd" clip-rule="evenodd" d="M12 16.5C14.4853 16.5 16.5 14.4853 16.5 12C16.5 9.51472 14.4853 7.5 12 7.5C9.51472 7.5 7.5 9.51472 7.5 12C7.5 14.4853 9.51472 16.5 12 16.5ZM12 18C15.3137 18 18 15.3137 18 12C18 8.68629 15.3137 6 12 6C8.68629 6 6 8.68629 6 12C6 15.3137 8.68629 18 12 18Z" />
<path fill-rule="evenodd" clip-rule="evenodd" d="M20.5303 3.46967C20.8232 3.76256 20.8232 4.23744 20.5303 4.53033L18.5303 6.53033C18.2374 6.82322 17.7626 6.82322 17.4697 6.53033C17.1768 6.23744 17.1768 5.76256 17.4697 5.46967L19.4697 3.46967C19.7626 3.17678 20.2374 3.17678 20.5303 3.46967Z" />
<path fill-rule="evenodd" clip-rule="evenodd" d="M20.5303 20.5303C20.2374 20.8232 19.7626 20.8232 19.4697 20.5303L17.4697 18.5303C17.1768 18.2374 17.1768 17.7626 17.4697 17.4697C17.7626 17.1768 18.2374 17.1768 18.5303 17.4697L20.5303 19.4697C20.8232 19.7626 20.8232 20.2374 20.5303 20.5303Z" />
<path fill-rule="evenodd" clip-rule="evenodd" d="M3.46967 20.5303C3.17678 20.2374 3.17678 19.7626 3.46967 19.4697L5.46967 17.4697C5.76256 17.1768 6.23744 17.1768 6.53033 17.4697C6.82322 17.7626 6.82322 18.2374 6.53033 18.5303L4.53033 20.5303C4.23744 20.8232 3.76256 20.8232 3.46967 20.5303Z" />
<path fill-rule="evenodd" clip-rule="evenodd" d="M3.46967 3.46967C3.76256 3.17678 4.23744 3.17678 4.53033 3.46967L6.53033 5.46967C6.82322 5.76256 6.82322 6.23744 6.53033 6.53033C6.23744 6.82322 5.76256 6.82322 5.46967 6.53033L3.46967 4.53033C3.17678 4.23744 3.17678 3.76256 3.46967 3.46967Z" />
<path fill-rule="evenodd" clip-rule="evenodd" d="M23.25 12.0001C23.25 12.4143 22.9142 12.7501 22.5 12.7501L19.5 12.7501C19.0858 12.7501 18.75 12.4143 18.75 12.0001C18.75 11.5859 19.0858 11.2501 19.5 11.2501L22.5 11.2501C22.9142 11.2501 23.25 11.5859 23.25 12.0001Z" />
<path fill-rule="evenodd" clip-rule="evenodd" d="M12.0009 23.25C11.5867 23.25 11.2509 22.9143 11.2509 22.5001L11.2506 19.4998C11.2506 19.0856 11.5863 18.7498 12.0005 18.7497C12.4148 18.7497 12.7506 19.0855 12.7506 19.4997L12.7509 22.4999C12.7509 22.9141 12.4152 23.2499 12.0009 23.25Z" />
<path fill-rule="evenodd" clip-rule="evenodd" d="M0.750122 12C0.750105 11.5858 1.08588 11.25 1.50009 11.25L4.49997 11.2499C4.91418 11.2499 5.24999 11.5856 5.25 11.9999C5.25002 12.4141 4.91425 12.7499 4.50003 12.7499L1.50015 12.75C1.08594 12.75 0.75014 12.4143 0.750122 12Z"/>
<path fill-rule="evenodd" clip-rule="evenodd" d="M12 0.750014C12.4142 0.749976 12.7501 1.08573 12.7501 1.49995L12.7504 4.50019C12.7504 4.9144 12.4147 5.25022 12.0004 5.25026C11.5862 5.2503 11.2504 4.91454 11.2504 4.50033L11.2501 1.50008C11.2501 1.08587 11.5858 0.750052 12 0.750014Z" />
</g>
<defs>
<clipPath id="clip0_6243_233430">
<rect width="24" height="24" fill="white"/>
</clipPath>
</defs>
</svg>
