<svg width="24" height="24" viewBox="0 0 24 24" fill="none" xmlns="http://www.w3.org/2000/svg">
<path fill-rule="evenodd" clip-rule="evenodd" d="M11.7336 20.9526C11.9056 21.0158 12.0944 21.0158 12.2664 20.9526C18.9215 18.5039 21 12.1208 21 5.59985C21 5.1738 20.6546 4.82842 20.2286 4.82842C18.8729 4.82842 17.3826 4.77071 15.9914 4.52484C14.5916 4.27744 13.3608 3.85085 12.4729 3.16195C12.1946 2.94602 11.8054 2.94602 11.5271 3.16195C10.6392 3.85085 9.40839 4.27744 8.00856 4.52484C6.61736 4.77071 5.12705 4.82842 3.77143 4.82842C3.34538 4.82842 3 5.1738 3 5.59985C3 12.1208 5.07853 18.5039 11.7336 20.9526ZM4.55288 6.3645C5.7411 6.34296 7.03321 6.26399 8.27707 6.04415C9.59425 5.81136 10.9096 5.41201 12 4.71413C13.0904 5.41201 14.4057 5.81136 15.7229 6.04415C16.9668 6.26399 18.2589 6.34296 19.4471 6.3645C19.2916 12.2263 17.3062 17.3104 12 19.4031C6.69379 17.3104 4.70836 12.2263 4.55288 6.3645Z" />
<path fill-rule="evenodd" clip-rule="evenodd" d="M14.6215 14.4234L14.4055 13.1127C14.3189 12.5807 14.5549 11.8354 14.9322 11.4514L15.8149 10.5514C16.1762 10.1834 16.0562 9.81935 15.5455 9.74335L14.3642 9.56335C13.8322 9.48335 13.2122 9.01935 12.9829 8.53268L12.4242 7.35269C12.2042 6.88602 11.8455 6.88602 11.6255 7.35269L11.0682 8.53402C10.8389 9.02068 10.2175 9.48335 9.68554 9.56335L8.50421 9.74335C7.99354 9.81935 7.87354 10.1834 8.23487 10.5514L9.11754 11.4514C9.49487 11.8354 9.73087 12.5807 9.64421 13.1127L9.42821 14.4234C9.34554 14.9327 9.64554 15.1447 10.0975 14.8967L11.1682 14.3087C11.6402 14.05 12.4082 14.0487 12.8802 14.3074L13.9522 14.8967C14.4042 15.1447 14.7042 14.9327 14.6215 14.4234Z" />
</svg>
