<svg width="24" height="24" viewBox="0 0 24 24" fill="none" xmlns="http://www.w3.org/2000/svg">
<path fill-rule="evenodd" clip-rule="evenodd" d="M7.23291 16.7633C3.56783 13.0994 1.31011 9.41189 2.19008 8.53038C2.58139 8.13839 3.06446 8.1347 3.65597 8.13019C4.23929 8.12574 4.92904 8.12689 5.77132 7.95763C7.33524 7.64335 9.41872 6.7003 12.2772 3.74206C13.7468 2.27979 16.569 3.07685 18.7674 5.27248C20.9614 7.47108 21.7051 10.2445 20.2429 11.7142C15.9699 15.8591 15.9147 17.9584 15.87 19.6583C15.8504 20.4059 15.8327 21.0762 15.4594 21.8094C14.5794 22.6909 10.895 20.4315 7.23291 16.7633ZM14.3364 20.3278C14.0308 20.2003 13.6414 20.0007 13.1737 19.7138C11.8121 18.8787 10.0673 17.4793 8.29446 15.7035L8.29339 15.7024C6.51916 13.9288 5.12091 12.1828 4.28627 10.82C3.99149 10.3387 3.78876 9.94015 3.66185 9.63019C4.46669 9.624 5.27586 9.58719 6.06685 9.42823C8.00407 9.03893 10.3418 7.89998 13.3431 4.79767C13.5863 4.56152 14.0489 4.38176 14.8853 4.59079C15.7306 4.80208 16.7553 5.38314 17.7066 6.33299C18.655 7.28366 19.2191 8.29209 19.4179 9.11787C19.6133 9.92909 19.4363 10.3928 19.1867 10.649C16.9785 12.7928 15.7563 14.5056 15.0983 15.998C14.4693 17.4248 14.4768 18.8249 14.3364 20.3278Z" />
<path d="M5.02912 14L9.9997 18.9707C9.36369 19.6066 8.48514 19.9999 7.51473 19.9999C5.5736 19.9999 4 18.4262 4 16.485C4 15.5146 4.39327 14.636 5.02912 14Z" />
<path d="M19.8 7.79983C20.5226 7.33353 21.0001 6.52778 21.0001 5.61194C21.0001 4.16941 19.8155 3 18.3542 3C17.4387 3 16.6318 3.459 16.1567 4.1566L19.8 7.79983Z" />
</svg>
