<svg width="24" height="24" viewBox="0 0 24 24" fill="none" xmlns="http://www.w3.org/2000/svg">
<path d="M11.7727 15.6015C12.0903 15.4893 12.3178 15.1864 12.3178 14.8305C12.3178 14.3789 11.9517 14.0129 11.5002 14.0129C11.0487 14.0129 10.6826 14.3789 10.6826 14.8305C10.6826 15.1864 10.9101 15.4893 11.2277 15.6015V17.2172C11.2277 17.3677 11.3497 17.4897 11.5002 17.4897C11.6507 17.4897 11.7727 17.3677 11.7727 17.2172V15.6015Z"/>
<path fill-rule="evenodd" clip-rule="evenodd" d="M7 11V9.5C7 7.01472 9.01472 5 11.5 5C13.9853 5 16 7.01472 16 9.5V11H17V18C17 19.1046 16.1046 20 15 20H8C6.89543 20 6 19.1046 6 18V11H7ZM15 9.75V11H8V9.75C8 7.67893 9.567 6 11.5 6C13.433 6 15 7.67893 15 9.75ZM16 12V18C16 18.5523 15.5523 19 15 19H8C7.44772 19 7 18.5523 7 18V12H16Z" />
</svg>
