<svg width="24" height="24" viewBox="0 0 24 24" fill="none" xmlns="http://www.w3.org/2000/svg">
<path fill-rule="evenodd" clip-rule="evenodd" d="M14.7197 4.21967C15.0126 3.92678 15.4874 3.92678 15.7803 4.21967L19.7803 8.21967C20.0732 8.51256 20.0732 8.98744 19.7803 9.28033L9.28033 19.7803C9.13968 19.921 8.94891 20 8.75 20H4.75C4.33579 20 4 19.6642 4 19.25V15.25C4 15.0511 4.07902 14.8603 4.21967 14.7197L14.7197 4.21967ZM13 8.06066L6.56066 14.5L9.5 17.4393L15.9393 11L13 8.06066ZM17 9.93934L14.0607 7L15.25 5.81066L18.1893 8.75L17 9.93934ZM8.43934 18.5L5.5 15.5607L5.5 18.5L8.43934 18.5Z" />
</svg>
