<svg width="24" height="24" viewBox="0 0 24 24" fill="none" xmlns="http://www.w3.org/2000/svg">
<path fill-rule="evenodd" clip-rule="evenodd" d="M9.98488 10.9834C10.5348 10.9794 10.9888 11.4248 10.9968 11.9782C11.0034 12.5317 10.5614 12.9838 10.0115 12.9891C9.46161 12.9931 9.00757 12.5477 8.99959 11.9942C8.99293 11.4408 9.43498 10.9887 9.98488 10.9834Z" />
<path fill-rule="evenodd" clip-rule="evenodd" d="M14.9886 10.9834C15.5398 10.9847 15.9885 11.4342 15.9899 11.9876C15.9912 12.541 15.5452 12.9878 14.9939 12.9864C14.4427 12.9851 13.994 12.5357 13.9927 11.9823C13.9913 11.4288 14.4374 10.9821 14.9886 10.9834Z" />
<path d="M9.64536 16.6112C9.27654 16.3538 8.99561 15.9604 8.99561 15.4723C8.99561 15.2149 9.20464 15.0055 9.46295 15.0055C9.71992 15.0055 9.92897 15.2149 9.92897 15.4723C9.92897 15.5843 10.0022 15.7217 10.1779 15.843C10.3683 15.9764 10.6559 16.0724 10.9968 16.0724C11.3376 16.0724 11.6239 15.975 11.8143 15.8444C11.953 15.7472 11.9911 15.6896 11.9835 15.5328C11.4154 15.3099 11.0101 14.7809 11.0101 14.5467C11.0101 14.2467 11.6812 14.0026 12.5067 13.9999C13.3349 14.0026 14.0059 14.2467 14.0059 14.5467C14.0059 14.7861 13.5824 15.3336 12.9931 15.5472C12.9843 15.6954 13.0381 15.7534 13.1671 15.843C13.3588 15.975 13.6504 16.0724 13.9926 16.0724C14.3347 16.0724 14.625 15.975 14.8167 15.843C14.9925 15.7217 15.0671 15.5856 15.0671 15.4723C15.0671 15.2149 15.2761 15.0055 15.5344 15.0055C15.7914 15.0055 16.0004 15.2149 16.0004 15.4723C16.0004 15.963 15.7168 16.3565 15.348 16.6125C14.9818 16.8659 14.5012 17.0072 13.9926 17.0072C13.4136 17.0072 12.8767 16.8293 12.4905 16.5C12.1062 16.8303 11.5715 17.0072 10.9968 17.0072C10.4895 17.0072 10.0102 16.8645 9.64536 16.6112Z" />
<path fill-rule="evenodd" clip-rule="evenodd" d="M20.5763 3.59799C20.4125 3.00988 19.6837 2.80318 19.2361 3.21659C18.2668 4.10954 17.1821 4.81717 15.9988 5.38634C14.8886 4.91374 13.7243 4.64886 12.511 4.64886C11.2903 4.64886 10.1202 4.91477 9.00451 5.39301C7.81677 4.82281 6.72778 4.1144 5.75652 3.21659C5.30888 2.80318 4.58014 3.00988 4.41628 3.59666C3.87037 5.55156 3.74604 7.69662 4.75734 9.52179C4.28244 10.5632 4.02194 11.6711 4.02194 12.8211C3.99396 15.2522 4.86524 17.9808 6.8636 19.5397C8.41832 20.7533 10.6392 20.9733 12.5043 21C14.8317 21 17.3963 20.4172 19.023 18.7262C20.4978 17.1926 21 14.8428 21 12.8251C21 11.6621 20.7318 10.5423 20.2446 9.49246C21.2466 7.6793 21.1166 5.53783 20.5763 3.59799ZM5.52282 12.8297C5.49983 14.8273 6.1524 17.082 7.78711 18.3573C8.90967 19.2335 10.6604 19.4726 12.5149 19.5C14.6666 19.4982 16.7294 18.946 17.941 17.6866C19.0265 16.5577 19.4991 14.6734 19.4991 12.8251C19.4991 11.6002 19.0676 10.5214 18.5628 9.43328L18.9308 8.76727C19.5104 7.71854 19.6065 6.43925 19.3717 5.06556C18.521 5.72632 17.6093 6.27633 16.6497 6.73794L16.0366 7.03284C15.6916 6.88596 15.3489 6.73128 14.9965 6.6026V7.42951C14.9965 7.74442 14.771 8 14.4962 8C14.22 8 13.9959 7.74442 13.9959 7.42951V6.31073C13.665 6.23854 13.3315 6.18994 12.9953 6.16606V8.53154C12.9953 8.79013 12.7698 9 12.495 9C12.2189 9 11.9947 8.79013 11.9947 8.53154V6.16823C11.6582 6.19351 11.3248 6.24337 10.9941 6.31679V7.49529C10.9941 7.77389 10.7687 8 10.4938 8C10.2177 8 9.99355 7.77389 9.99355 7.49529V6.61288C9.64665 6.74119 9.30917 6.89456 8.96937 7.04021L8.35465 6.74511C7.39112 6.28255 6.47463 5.73112 5.61986 5.06626C5.38309 6.44849 5.48259 7.73435 6.07034 8.79514L6.43663 9.45621C5.94272 10.5394 5.52282 11.6149 5.52282 12.8297Z" />
</svg>
