<svg width="24" height="24" viewBox="0 0 24 24" fill="none" xmlns="http://www.w3.org/2000/svg">
<path fill-rule="evenodd" clip-rule="evenodd" d="M17.944 3.67714C17.0654 2.79847 15.6408 2.79846 14.7621 3.67712L10.9393 7.49974H5.25C4.94665 7.49974 4.67318 7.68248 4.55709 7.96273C4.441 8.24299 4.50517 8.56558 4.71967 8.78007L8.93531 12.9957L3 20.25V21H3.75L11.0043 15.0647L15.2197 19.2801C15.4342 19.4946 15.7568 19.5587 16.037 19.4426C16.3173 19.3266 16.5 19.0531 16.5 18.7497V13.0604L20.3227 9.23782C21.2014 8.35914 21.2014 6.93451 20.3227 6.05582L17.944 3.67714ZM15.8227 4.73779C16.1156 4.4449 16.5905 4.44491 16.8834 4.7378L19.2621 7.11648C19.5549 7.40937 19.5549 7.88425 19.262 8.17714L15.2197 12.2194C15.079 12.3601 15 12.5508 15 12.7497V16.9391L7.06066 8.99974H11.25C11.4489 8.99974 11.6397 8.92073 11.7803 8.78008L15.8227 4.73779Z" />
</svg>
