<svg width="24" height="24" viewBox="0 0 24 24" fill="none" xmlns="http://www.w3.org/2000/svg">
<path d="M0.6985 17.9245C0.0531667 18.4928 0 18.898 0 20.5242C0 21.2612 0.847 22 1.69033 22H16.083C16.0284 21.6748 16 21.3407 16 21C16 19.1063 16.8773 17.4174 18.2477 16.3178C17.4629 16.0429 16.6229 15.8112 15.8125 15.6475C14.1753 15.1928 13.4072 14.0928 13.2367 12.9067C15.158 11.4272 16.5 8.294 16.5 5.89233C16.5 2.64 14.036 0 11 0C7.964 0 5.5 2.64 5.5 5.89233C5.5 8.294 6.84017 11.4272 8.7615 12.9067C8.591 14.0928 7.82283 15.1928 6.1875 15.6475C4.03517 16.082 1.6775 16.995 0.6985 17.9245Z" />
</svg>
