<svg width="24" height="24" viewBox="0 0 24 24" fill="none" xmlns="http://www.w3.org/2000/svg">
<path fill-rule="evenodd" clip-rule="evenodd" d="M8.5 7H5V17H8V16.5C8 16.2239 8.22386 16 8.5 16C8.77614 16 9 16.2239 9 16.5V17H19V7H8.5ZM8.5 7C8.77614 7 9 7.22386 9 7.5V8.5C9 8.77614 8.77614 9 8.5 9C8.22386 9 8 8.77614 8 8.5V7.5C8 7.22386 8.22386 7 8.5 7ZM19 18H8.5H5C4.44772 18 4 17.5523 4 17V7C4 6.44772 4.44772 6 5 6H19C19.5523 6 20 6.44772 20 7V17C20 17.5523 19.5523 18 19 18ZM8.5 10C8.77614 10 9 10.2239 9 10.5V11.5C9 11.7761 8.77614 12 8.5 12C8.22386 12 8 11.7761 8 11.5V10.5C8 10.2239 8.22386 10 8.5 10ZM9 13.5C9 13.2239 8.77614 13 8.5 13C8.22386 13 8 13.2239 8 13.5V14.5C8 14.7761 8.22386 15 8.5 15C8.77614 15 9 14.7761 9 14.5V13.5ZM18 11.5C18 11.7761 17.7761 12 17.5 12H13.5C13.2239 12 13 11.7761 13 11.5C13 11.2239 13.2239 11 13.5 11H17.5C17.7761 11 18 11.2239 18 11.5ZM17.5 14C17.7761 14 18 13.7761 18 13.5C18 13.2239 17.7761 13 17.5 13H11.5C11.2239 13 11 13.2239 11 13.5C11 13.7761 11.2239 14 11.5 14H17.5Z" />
</svg>
