<svg width="24" height="24" viewBox="0 0 24 24" fill="none" xmlns="http://www.w3.org/2000/svg">
<path fill-rule="evenodd" clip-rule="evenodd" d="M21 9.5C21 12.5376 18.5376 15 15.5 15C14.2516 15 13.1004 14.5841 12.1774 13.8833L9.06066 17L11.0303 18.9697C11.3232 19.2626 11.3232 19.7374 11.0303 20.0303C10.7374 20.3232 10.2626 20.3232 9.96967 20.0303L8 18.0607L7.06066 19L8.03033 19.9697C8.32322 20.2626 8.32322 20.7374 8.03033 21.0303C7.73744 21.3232 7.26256 21.3232 6.96967 21.0303L6 20.0607L5.53033 20.5303C5.23744 20.8232 4.76256 20.8232 4.46967 20.5303C4.17678 20.2374 4.17678 19.7626 4.46967 19.4697L11.1167 12.8226C10.4159 11.8996 10 10.7484 10 9.5C10 6.46243 12.4624 4 15.5 4C18.5376 4 21 6.46243 21 9.5ZM19.5 9.5C19.5 11.7091 17.7091 13.5 15.5 13.5C13.2909 13.5 11.5 11.7091 11.5 9.5C11.5 7.29086 13.2909 5.5 15.5 5.5C17.7091 5.5 19.5 7.29086 19.5 9.5Z"/>
</svg>
