<svg width="24" height="24" viewBox="0 0 24 24" fill="none" xmlns="http://www.w3.org/2000/svg">
<path fill-rule="evenodd" clip-rule="evenodd" d="M12 19.5C16.1421 19.5 19.5 16.1421 19.5 12C19.5 7.85786 16.1421 4.5 12 4.5C7.85786 4.5 4.5 7.85786 4.5 12C4.5 16.1421 7.85786 19.5 12 19.5ZM12 21C16.9706 21 21 16.9706 21 12C21 7.02944 16.9706 3 12 3C7.02944 3 3 7.02944 3 12C3 16.9706 7.02944 21 12 21Z" />
<path d="M15.1339 8.21747C15.3191 7.98464 15.0154 7.68098 14.7826 7.86619L10.3684 11.3775C9.95133 11.7093 9.91607 12.3303 10.2929 12.7071C10.3636 12.7778 10.4428 12.834 10.5271 12.8758L15.2021 16.9887C15.3898 17.1498 15.6453 16.8936 15.4838 16.7063L11.7466 12.4757L15.1339 8.21747Z" />
</svg>
