<svg width="24" height="24" viewBox="0 0 24 24" fill="none" xmlns="http://www.w3.org/2000/svg">
<path fill-rule="evenodd" clip-rule="evenodd" d="M10.5303 4.4697C10.8232 4.7626 10.8232 5.23747 10.5303 5.53036L6.81067 9.25001H13C16.1756 9.25001 18.75 11.8244 18.75 15C18.75 18.1756 16.1756 20.75 13 20.75H12C11.5858 20.75 11.25 20.4142 11.25 20C11.25 19.5858 11.5858 19.25 12 19.25H13C15.3472 19.25 17.25 17.3472 17.25 15C17.25 12.6528 15.3472 10.75 13 10.75H6.81066L10.5303 14.4697C10.8232 14.7626 10.8232 15.2374 10.5303 15.5303C10.2374 15.8232 9.76256 15.8232 9.46967 15.5303L4.46967 10.5303C4.32902 10.3897 4.25 10.1989 4.25 10C4.25 9.8011 4.32902 9.61033 4.46967 9.46968L9.46967 4.4697C9.76256 4.17681 10.2374 4.17681 10.5303 4.4697Z" />
<path d="M16.9951 3.62261C16.9983 3.58217 17 3.54128 17 3.5C17 2.67157 16.3284 2 15.5 2C14.6716 2 14 2.67157 14 3.5C14 4.32843 14.6716 5 15.5 5C15.6056 5 15.7087 4.98909 15.8081 4.96832C15.5453 5.87289 14.9892 6.62967 14 7C16.4486 7 16.9786 5.56099 16.9951 3.62261Z" />
<path d="M20.9951 3.62261C20.9983 3.58217 21 3.54128 21 3.5C21 2.67157 20.3284 2 19.5 2C18.6716 2 18 2.67157 18 3.5C18 4.32843 18.6716 5 19.5 5C19.6056 5 19.7087 4.98909 19.8081 4.96832C19.5453 5.87289 18.9892 6.62967 18 7C20.4486 7 20.9786 5.56099 20.9951 3.62261Z" />
</svg>
