<svg width="24" height="24" viewBox="0 0 24 24" fill="none" xmlns="http://www.w3.org/2000/svg">
<path fill-rule="evenodd" clip-rule="evenodd" d="M4.5 17.5H19.5V12.8333L21 11.5V17.5C21 18.3284 20.3284 19 19.5 19H4.5C3.67157 19 3 18.3284 3 17.5L3 6C3 4.89543 3.89543 4 5 4L8.92963 4C9.59834 4 10.2228 4.3342 10.5937 4.8906L11.7031 6.5547C11.7819 6.67285 11.8835 6.77096 12 6.84474V8.44209C11.3746 8.30501 10.8178 7.93089 10.4551 7.38675L9.34566 5.72265C9.25292 5.58355 9.09681 5.5 8.92963 5.5H5C4.72386 5.5 4.5 5.72386 4.5 6L4.5 17.5Z" />
<path fill-rule="evenodd" clip-rule="evenodd" d="M12.9697 9.46967C12.6768 9.76256 12.6768 10.2374 12.9697 10.5303L15.4697 13.0303C15.7626 13.3232 16.2374 13.3232 16.5303 13.0303L19.0303 10.5303C19.3232 10.2374 19.3232 9.76256 19.0303 9.46967C18.7374 9.17678 18.2626 9.17678 17.9697 9.46967L16.75 10.6893L16.75 4C16.75 3.58579 16.4142 3.25 16 3.25C15.5858 3.25 15.25 3.58579 15.25 4L15.25 10.6893L14.0303 9.46967C13.7374 9.17678 13.2626 9.17678 12.9697 9.46967Z" />
</svg>
