<svg width="24" height="24" viewBox="0 0 24 24" fill="none" xmlns="http://www.w3.org/2000/svg">
<path fill-rule="evenodd" clip-rule="evenodd" d="M10 17C6.13401 17 3 13.866 3 10C3 6.13401 6.13401 3 10 3C13.866 3 17 6.13401 17 10C17 11.717 16.3818 13.2896 15.3559 14.5074L16.9243 16.0757C16.9334 16.0849 16.9422 16.0942 16.9506 16.1038C17.4892 15.8922 18.1254 16.0041 18.5607 16.4393L20.5607 18.4393C21.1464 19.0251 21.1464 19.9749 20.5607 20.5607C19.9749 21.1464 19.0251 21.1464 18.4393 20.5607L16.4393 18.5607C16.0041 18.1254 15.8922 17.4892 16.1038 16.9506C16.0942 16.9422 16.0849 16.9334 16.0757 16.9243L14.5074 15.3559C13.2896 16.3818 11.717 17 10 17ZM10 15.5C6.96243 15.5 4.5 13.0376 4.5 10C4.5 6.96243 6.96243 4.5 10 4.5C13.0376 4.5 15.5 6.96243 15.5 10C15.5 13.0376 13.0376 15.5 10 15.5Z"/>
</svg>
