<svg width="32" height="32" viewBox="0 0 32 32" fill="none" xmlns="http://www.w3.org/2000/svg">
<path fill-rule="evenodd" clip-rule="evenodd" d="M27.2852 4.71472L18.7019 27.5142C18.5953 27.7974 18.3289 27.9888 18.0265 27.9995C17.7241 28.0102 17.4448 27.8381 17.3185 27.5631L13.0685 18.3131C12.9347 18.0219 13.0007 17.6779 13.2328 17.4569L18.4828 12.4569C18.7827 12.1712 19.2574 12.1828 19.5431 12.4827C19.8288 12.7827 19.8172 13.2574 19.5172 13.5431L14.6552 18.1736L17.9312 25.3039L24.7148 7.28521L6.78501 14.0352L10.5757 15.6144C10.9581 15.7737 11.139 16.2127 10.9797 16.5951C10.8204 16.9775 10.3813 17.1583 9.99893 16.999L4.46159 14.6923C4.17771 14.574 3.99478 14.2945 4.00011 13.987C4.00544 13.6795 4.19794 13.4064 4.48575 13.2981L27.2852 4.71472Z" />
</svg>
