<svg width="24" height="24" viewBox="0 0 24 24" fill="none" xmlns="http://www.w3.org/2000/svg">
<path d="M19 5.5C19 6.88071 17.8807 8 16.5 8C15.887 8 15.3255 7.77935 14.8906 7.41314L7.91521 11.852C8.02582 12.2653 8.02582 12.7347 7.91521 13.148L14.8906 17.5869C15.3255 17.2206 15.887 17 16.5 17C17.8807 17 19 18.1193 19 19.5C19 20.8807 17.8807 22 16.5 22C15.1193 22 14 20.8807 14 19.5C14 19.2759 14.0295 19.0587 14.0848 18.852L7.1094 14.4131C6.67452 14.7794 6.11303 15 5.5 15C4.11929 15 3 13.8807 3 12.5C3 11.1193 4.11929 10 5.5 10C6.11303 10 6.67452 10.2206 7.1094 10.5869L14.0848 6.14797C14.0295 5.94131 14 5.7241 14 5.5C14 4.11929 15.1193 3 16.5 3C17.8807 3 19 4.11929 19 5.5Z"/>
</svg>
