<svg width="24" height="24" viewBox="0 0 24 24" fill="none" xmlns="http://www.w3.org/2000/svg">
<path fill-rule="evenodd" clip-rule="evenodd" d="M11.984 6C7.77752 6.00002 4 8.99384 4 11.4969C4 14 7.83515 17 12.0128 17C16.1905 17 20 14 20 11.4969C20 8.99384 16.1905 5.99998 11.984 6ZM8.17468 9.82782C6.49078 10.1491 5.2268 10.7064 5 11.4999C5.00166 12.2745 5.64737 13.3875 7.02285 14.3747C8.35129 15.3281 10.1536 16 12.0128 16C13.8716 16 15.6669 15.3284 16.9883 14.3759C18.3558 13.3902 18.9984 12.2771 19 11.4998C19 11.4999 19 11.4998 19 11.4998C18.7733 10.7063 17.5092 10.1491 15.8253 9.82781C15.9388 10.1986 16 10.5922 16 11C16 13.2079 14.2083 15 12 15C9.7916 15 7.99997 13.2079 7.99997 11C7.99997 10.5922 8.06109 10.1986 8.17468 9.82782Z"/>
</svg>
