<svg width="24" height="24" viewBox="0 0 24 24" fill="none" xmlns="http://www.w3.org/2000/svg">
<path fill-rule="evenodd" clip-rule="evenodd" d="M14.5 5.5H5.5V19.5H14.5V15H16V19.5C16 20.3284 15.3284 21 14.5 21H5.5C4.67157 21 4 20.3284 4 19.5V5.5C4 4.67157 4.67157 4 5.5 4H14.5C15.3284 4 16 4.67157 16 5.5V10H14.5V5.5Z" />
<path fill-rule="evenodd" clip-rule="evenodd" d="M17.4697 9.46967C17.7626 9.17678 18.2374 9.17678 18.5303 9.46967L21.0303 11.9697C21.3232 12.2626 21.3232 12.7374 21.0303 13.0303L18.5303 15.5303C18.2374 15.8232 17.7626 15.8232 17.4697 15.5303C17.1768 15.2374 17.1768 14.7626 17.4697 14.4697L18.6893 13.25H12C11.5858 13.25 11.25 12.9142 11.25 12.5C11.25 12.0858 11.5858 11.75 12 11.75H18.6893L17.4697 10.5303C17.1768 10.2374 17.1768 9.76256 17.4697 9.46967Z" />
</svg>
