<svg width="32" height="32" viewBox="0 0 32 32" fill="none" xmlns="http://www.w3.org/2000/svg">
<path fill-rule="evenodd" clip-rule="evenodd" d="M16 24.5C20.6944 24.5 24.5 20.6944 24.5 16C24.5 11.3056 20.6944 7.5 16 7.5C11.3056 7.5 7.5 11.3056 7.5 16C7.5 20.6944 11.3056 24.5 16 24.5ZM16 26C21.5228 26 26 21.5228 26 16C26 10.4772 21.5228 6 16 6C10.4772 6 6 10.4772 6 16C6 21.5228 10.4772 26 16 26Z" />
<ellipse cx="13.5" cy="14" rx="0.5" ry="1" />
<ellipse cx="18.5" cy="14" rx="0.5" ry="1" />
<path fill-rule="evenodd" clip-rule="evenodd" d="M12.438 17.0039C12.712 16.9696 12.9619 17.164 12.9962 17.438C13.2085 19.1362 14.5716 20 16.0001 20C17.4285 20 18.7916 19.1362 19.0039 17.438C19.0382 17.164 19.2881 16.9696 19.5621 17.0039C19.8361 17.0381 20.0304 17.288 19.9962 17.562C19.7085 19.8637 17.8216 21 16.0001 21C14.1785 21 12.2916 19.8637 12.0039 17.562C11.9697 17.288 12.164 17.0381 12.438 17.0039Z" />
</svg>
