<svg width="24" height="24" viewBox="0 0 24 24" fill="none" xmlns="http://www.w3.org/2000/svg">
<path fill-rule="evenodd" clip-rule="evenodd" d="M13.5022 9C14.3302 9 15.0022 9.672 15.0022 10.5C15.0022 11.328 14.3302 12 13.5022 12C12.6742 12 12.0022 11.328 12.0022 10.5C12.0022 9.672 12.6742 9 13.5022 9Z" />
<path fill-rule="evenodd" clip-rule="evenodd" d="M8.71941 18.8983C9.57141 19.2992 11.3472 18.1155 11.9468 17.6834C12.1117 18.377 12.3937 19.6548 12.8483 20.6692C13.0555 21.1315 13.701 21.067 13.9815 20.7925C15.3856 19.4187 16.9963 17.6834 17.8913 15.9694C18.0164 15.6646 18.0348 15.3283 17.9437 15.0119L17.1701 12.4525C18.9599 9.81352 20.075 6.8712 20.9606 4.1093C21.1699 3.45197 20.5486 2.83064 19.8913 3.03998C17.1045 3.93322 14.135 5.05915 11.4774 6.87475L8.90902 6.09843C8.50977 5.95569 8.2146 5.97522 7.95155 6.15083C7.40708 6.30607 4.25263 8.78365 3.43005 9.82325C3.20558 10.1069 2.66251 10.6663 3.30355 11.0293C3.94459 11.3923 5.38958 11.9556 6.17056 12.1669C5.78125 12.912 4.69386 14.4357 5.04142 15.2962C3.55873 16.473 3.07908 18.2795 2.99923 20.1147C2.96056 20.9947 4.13123 21.3427 4.57923 20.5854C5.28665 19.391 5.70578 19.3106 6.97256 19.4547C7.61092 19.5283 8.21829 19.3101 8.71941 18.8983ZM13.5201 17.9496L13.2995 16.6587C14.299 15.8391 15.2307 14.9419 16.0541 13.9445L16.4975 15.4112C15.7888 16.6966 14.7292 17.9064 13.7435 18.9832L13.5201 17.9496ZM6.88443 10.9204C6.19217 10.7024 5.63009 10.4731 4.93776 10.2986C5.96261 9.30869 7.08678 8.19402 8.42444 7.48461L9.99296 7.99307C9.57089 8.34398 9.16021 8.71668 8.76325 9.11331C8.34018 9.53638 7.40654 10.2803 6.88443 10.9204ZM19.1269 4.87348C14.6336 6.41819 10.5406 8.75023 7.72943 12.6442C7.28497 13.2598 6.94325 13.8187 6.72018 14.2783C8.41025 14.4428 9.53893 15.5973 9.71066 17.2768C10.171 17.0551 10.7307 16.7144 11.3472 16.2705C15.2375 13.4694 17.5727 9.39226 19.1269 4.87348ZM7.43737 17.9496C6.54342 18.1529 5.79406 17.4366 4.82609 18.1155C5.16987 17.083 5.99632 16.2705 6.83785 15.8902C7.56869 16.1163 8.05096 16.6206 8.13779 17.3901C7.98092 17.7652 7.62882 17.9061 7.43737 17.9496Z" />
</svg>
