<svg width="24" height="24" viewBox="0 0 24 24" fill="none" xmlns="http://www.w3.org/2000/svg">
<path fill-rule="evenodd" clip-rule="evenodd" d="M21 12C21 7.03267 16.9673 3 12 3C7.03267 3 3 7.03267 3 12C3 16.9673 7.03267 21 12 21C16.9673 21 21 16.9673 21 12ZM13.2863 4.61012C14.0106 5.22834 14.6012 5.91829 15.108 6.65912C14.9487 7.00063 14.8444 7.36447 14.7317 7.72316L12.1756 8.41158C11.5707 7.87771 10.9441 7.41042 10.2974 6.99613L10.5753 4.63543C11.452 4.46652 12.4041 4.45733 13.2863 4.61012ZM14.2776 4.85276C14.7858 5.37198 15.2227 5.92777 15.61 6.50912C16.1522 6.74623 16.719 6.97644 17.1609 7.38188L17.5634 6.9727C16.6847 6.00099 15.5552 5.26017 14.2776 4.85276ZM17.8876 7.3561L17.4541 7.79681C17.7225 8.37779 17.8963 8.99173 17.984 9.63356C18.6045 10.1394 19.0873 10.6806 19.469 11.3145C19.334 9.82761 18.7641 8.46532 17.8876 7.3561ZM19.4852 12.4746C19.1197 11.5604 18.6195 10.8527 17.8907 10.2098L16.8522 10.2973C16.4514 11.4779 16.0373 12.5468 15.6096 13.5011C15.8438 14.1661 15.9937 14.8562 16.0974 15.5621C16.9475 15.6408 17.8151 15.6192 18.6085 15.5469C19.1066 14.6218 19.416 13.5805 19.4852 12.4746ZM15.7461 16.0274C16.6053 16.1314 17.4846 16.1302 18.2966 16.0736C17.0976 17.9218 15.1073 19.2102 12.8075 19.4569C13.1179 18.7811 13.3812 18.0852 13.5972 17.3695C14.3959 16.9628 15.1068 16.5142 15.7461 16.0274ZM13.0882 17.3245C12.4287 16.9492 11.8187 16.5594 11.2801 16.1436L8.20193 16.3133C8.0862 16.5561 7.94458 16.7769 7.80353 16.9775C7.88824 17.5333 8.05106 18.0348 8.26213 18.5021C9.46389 19.195 10.8506 19.5394 12.2366 19.4963C12.5735 18.7951 12.8575 18.0711 13.0882 17.3245ZM11.1408 15.6506L8.33663 15.8051C7.729 15.0392 7.15814 14.3104 6.88033 13.6291L7.84689 11.7892L10.8431 11.7421L12.0932 13.3342C11.6761 14.0879 11.3625 14.8604 11.1408 15.6506ZM12.4365 12.9617L11.2274 11.4219C11.6676 10.5946 12.0593 9.74536 12.4011 8.86865L14.9768 8.17496C15.6369 8.89567 16.0746 9.58773 16.3343 10.2667C15.9705 11.3285 15.5968 12.2938 15.2135 13.1614C14.2869 13.0277 13.3621 12.9406 12.4365 12.9617ZM6.48862 13.2996L5.27224 13.3155C4.99662 12.633 4.70924 11.908 4.54617 11.1641C4.6622 10.1201 4.99295 9.14038 5.49322 8.27026C6.01841 8.47613 6.53309 8.70747 7.05586 8.91926C7.18827 9.66417 7.37201 10.4096 7.61574 11.1541L6.48862 13.2996ZM5.04334 13.6835C5.07701 14.2955 5.1315 14.8551 5.30374 15.3789C4.83061 14.444 4.54753 13.397 4.50547 12.2888C4.66759 12.7601 4.85655 13.2215 5.04334 13.6835ZM5.71713 16.0947C6.20707 16.6451 6.79706 17.0252 7.49518 17.2494C7.55787 17.5771 7.64596 17.8864 7.75323 18.1808C6.94641 17.6251 6.25354 16.9155 5.71713 16.0947ZM9.81222 6.84086C8.92339 7.33441 8.09329 7.88568 7.31114 8.48307C6.79326 8.27526 6.29685 8.05143 5.76127 7.83853C6.75944 6.34603 8.27872 5.2309 10.0578 4.75441L9.81222 6.84086Z" />
</svg>
