<svg width="24" height="24" viewBox="0 0 24 24" fill="none" xmlns="http://www.w3.org/2000/svg">
<g clip-path="url(#clip0_3783_42003)">
<path d="M17.6911 14.5882C17.0911 13.7919 16.316 13.1444 15.4256 12.6956C14.5353 12.2469 13.5537 12.0089 12.5567 12.0002C11.5597 11.9915 10.5741 12.2123 9.6761 12.6455C8.77809 13.0786 7.99176 13.7125 7.37793 14.4982L8.61308 15.4632C9.07888 14.867 9.6756 14.3859 10.3571 14.0572C11.0385 13.7285 11.7865 13.561 12.543 13.5676C13.2996 13.5742 14.0445 13.7548 14.7201 14.0953C15.3958 14.4359 15.984 14.9273 16.4393 15.5315L17.6911 14.5882Z"/>
<path d="M20.087 11.7828C19.2101 10.619 18.0772 9.67258 16.7759 9.0167C15.4747 8.36082 14.04 8.01308 12.5829 8.00036C11.1258 7.98765 9.68525 8.3103 8.37277 8.94337C7.06029 9.57643 5.91103 10.5029 5.0139 11.6512L6.19492 12.5739C6.95052 11.6068 7.91847 10.8265 9.02389 10.2933C10.1293 9.76009 11.3426 9.48833 12.5698 9.49904C13.7971 9.50975 15.0054 9.80264 16.1014 10.355C17.1973 10.9074 18.1515 11.7046 18.8901 12.6847L20.087 11.7828Z" />
<path d="M22.4829 8.97731C21.3291 7.44605 19.8384 6.20076 18.1262 5.33776C16.4141 4.47477 14.5264 4.01721 12.6091 4.00048C10.6918 3.98374 8.79638 4.40829 7.06943 5.24127C5.34248 6.07426 3.8303 7.29335 2.64986 8.80423L3.79771 9.70103C4.84059 8.36621 6.17655 7.28918 7.70226 6.55326C9.22797 5.81735 10.9025 5.44228 12.5964 5.45706C14.2902 5.47184 15.958 5.87608 17.4706 6.63851C18.9832 7.40094 20.3002 8.50112 21.3196 9.85394L22.4829 8.97731Z"/>
<circle cx="12.5" cy="17.5" r="1.5" />
</g>
<defs>
<clipPath id="clip0_3783_42003">
<rect width="24" height="24" fill="white"/>
</clipPath>
</defs>
</svg>
