<svg width="32" height="32" viewBox="0 0 32 32" fill="none" xmlns="http://www.w3.org/2000/svg">
<path fill-rule="evenodd" clip-rule="evenodd" d="M6 11C6 8.23858 8.23858 6 11 6H17.7574C18.553 6 19.3161 6.31607 19.8787 6.87868L25.1213 12.1213C25.6839 12.6839 26 13.447 26 14.2426V21C26 23.7614 23.7614 26 21 26H11C8.23858 26 6 23.7614 6 21V11ZM21 24.5H11C9.067 24.5 7.5 22.933 7.5 21V11C7.5 9.067 9.067 7.5 11 7.5H17.5V9.75C17.5 12.3734 19.6266 14.5 22.25 14.5H24.5V21C24.5 22.933 22.933 24.5 21 24.5ZM23.8787 13L19 8.12132V9.75C19 11.5449 20.4551 13 22.25 13H23.8787Z" />
<path d="M16.0832 11.0015C16.0556 11.0005 16.0278 11 16 11C14.62 11 13.5 12.2 13.5 13.6783C13.5 14.77 14.1092 16.1942 14.9825 16.8667C14.905 17.4058 14.5558 17.9058 13.8125 18.1125C12.8342 18.31 11.7625 18.725 11.3175 19.1475C11.0242 19.4058 11 19.59 11 20.3292C11 20.6642 11.385 21 11.7683 21H20.1342C20.615 21 21 20.6642 21 20.3292C21 19.59 20.975 19.4058 20.6842 19.1475C20.2375 18.725 19.165 18.31 18.1875 18.1125C17.4433 17.9058 17.0942 17.4058 17.0167 16.8667C17.6206 16.4016 18.0986 15.5771 18.336 14.7517C17.1658 13.8481 16.3386 12.5217 16.0832 11.0015Z" />
</svg>
