<svg width="24" height="24" viewBox="0 0 24 24" fill="none" xmlns="http://www.w3.org/2000/svg">
<path d="M19.6154 7.20136V4.69231C19.6154 4.30996 19.9253 4 20.3077 4C20.69 4 21 4.30996 21 4.69231V9.30769C21 9.69004 20.69 10 20.3077 10H15.6923C15.31 10 15 9.69004 15 9.30769C15 8.92534 15.31 8.61538 15.6923 8.61538H18.6947C17.4578 6.17367 14.9243 4.5 12 4.5C7.85786 4.5 4.5 7.85786 4.5 12H3C3 7.02944 7.02944 3 12 3C15.2064 3 18.0213 4.6768 19.6154 7.20136Z" />
<path d="M4.38461 16.7987V19.3077C4.38461 19.69 4.07466 20 3.69231 20C3.30996 20 3 19.69 3 19.3077V14.6923C3 14.31 3.30996 14 3.69231 14H8.30769C8.69004 14 9 14.31 9 14.6923C9 15.0747 8.69004 15.3846 8.30769 15.3846H5.3053C6.5422 17.8263 9.07563 19.5 12 19.5C16.1421 19.5 19.5 16.1421 19.5 12H21C21 16.9706 16.9705 21 12 21C8.79354 21 5.97875 19.3232 4.38461 16.7987Z" />
</svg>
