<svg width="24" height="24" viewBox="0 0 24 24" fill="none" xmlns="http://www.w3.org/2000/svg">
<path fill-rule="evenodd" clip-rule="evenodd" d="M19.4118 4C20.2889 4 21 4.71355 21 5.59375V8.78125C21 9.66145 20.2889 10.375 19.4118 10.375H18.3529C17.9317 10.375 17.5277 10.2071 17.2299 9.9082L15.5774 8.25H14.6471V19.4062C14.6471 20.2865 13.936 21 13.0588 21H10.9412C10.064 21 9.35294 20.2865 9.35294 19.4062V8.25H8.42257L6.77011 9.9082C6.47226 10.2071 6.06829 10.375 5.64706 10.375H4.58824C3.71108 10.375 3 9.66145 3 8.78125V5.59375C3 4.71355 3.71108 4 4.58824 4H19.4118ZM10.9412 19.4062H13.0588V6.65625L16.2353 6.65625L18.3529 8.78125H19.4118V5.59375H4.58824V8.78125H5.64706L7.76471 6.65625L10.9412 6.65625V19.4062Z" />
</svg>
