<svg width="24" height="24" viewBox="0 0 24 24" fill="none" xmlns="http://www.w3.org/2000/svg">
<path fill-rule="evenodd" clip-rule="evenodd" d="M8 2V4H5C3.89543 4 3 4.89543 3 6V9H4V19C4 20.6569 5.34315 22 7 22H17C18.6569 22 20 20.6569 20 19V9H21V6C21 4.89543 20.1046 4 19 4H16V2C16 1.44772 15.5523 1 15 1H9C8.44772 1 8 1.44772 8 2ZM18.5 9H5.5V19C5.5 19.8284 6.17157 20.5 7 20.5H17C17.8284 20.5 18.5 19.8284 18.5 19V9ZM19.5 7.5V6C19.5 5.72386 19.2761 5.5 19 5.5H5C4.72386 5.5 4.5 5.72386 4.5 6V7.5H19.5ZM9.5 2.5V4H14.5V2.5H9.5Z"/>
<path fill-rule="evenodd" clip-rule="evenodd" d="M8 18V11H9.5V18H8Z" />
<path fill-rule="evenodd" clip-rule="evenodd" d="M14.5 18V11H16V18H14.5Z"/>
<path fill-rule="evenodd" clip-rule="evenodd" d="M11.25 18V11H12.75V18H11.25Z"/>
</svg>
