<svg width="24" height="24" viewBox="0 0 24 24" fill="none" xmlns="http://www.w3.org/2000/svg">
<path fill-rule="evenodd" clip-rule="evenodd" d="M2 3.25C2 2.55964 2.55964 2 3.25 2H6.75C7.16421 2 7.5 2.33579 7.5 2.75C7.5 3.16421 7.16421 3.5 6.75 3.5H3.5V6.75C3.5 7.16421 3.16421 7.5 2.75 7.5C2.33579 7.5 2 7.16421 2 6.75V3.25Z"/>
<path fill-rule="evenodd" clip-rule="evenodd" d="M22 20.75C22 21.4404 21.4404 22 20.75 22H17.25C16.8358 22 16.5 21.6642 16.5 21.25C16.5 20.8358 16.8358 20.5 17.25 20.5H20.5V17.25C20.5 16.8358 20.8358 16.5 21.25 16.5C21.6642 16.5 22 16.8358 22 17.25V20.75Z" />
<path d="M2 22H8L2 16V22Z" />
<path d="M22 2H16L18.4697 4.46967L13.524 9.41536C13.0773 9.15145 12.5564 9 12 9C10.3431 9 9 10.3431 9 12C9 13.6569 10.3431 15 12 15C13.6569 15 15 13.6569 15 12C15 11.4436 14.8486 10.9227 14.5846 10.476L19.5303 5.53033L22 8V2Z" />
<path d="M19.7293 14.0713C19.9059 13.4107 20 12.7163 20 12C20 11.2837 19.9059 10.5893 19.7293 9.92869L18.2801 10.3161C18.4233 10.8515 18.5 11.4156 18.5 12C18.5 12.5844 18.4233 13.1485 18.2801 13.6839L19.7293 14.0713Z" />
<path d="M14.0713 4.27074C13.4107 4.09415 12.7163 4 12 4C11.2837 4 10.5893 4.09415 9.92869 4.27074L10.3161 5.71986C10.8515 5.57674 11.4156 5.5 12 5.5C12.5844 5.5 13.1485 5.57674 13.6839 5.71986L14.0713 4.27074Z" />
<path d="M7.99936 5.07063C6.78535 5.77305 5.77305 6.78535 5.07063 7.99936L6.36897 8.75057C6.94 7.76364 7.76364 6.94 8.75057 6.36897L7.99936 5.07063Z" />
<path d="M4 12C4 11.2837 4.09415 10.5893 4.27074 9.9287L5.71986 10.3161C5.57674 10.8515 5.5 11.4156 5.5 12C5.5 12.5844 5.57674 13.1485 5.71986 13.6839L4.27074 14.0713C4.09415 13.4107 4 12.7163 4 12Z" />
<path d="M5.07063 16.0006C5.77305 17.2147 6.78535 18.227 7.99936 18.9294L8.75057 17.631C7.76364 17.06 6.94 16.2364 6.36897 15.2494L5.07063 16.0006Z" />
<path d="M9.9287 19.7293C10.5893 19.9059 11.2837 20 12 20C12.7163 20 13.4107 19.9059 14.0713 19.7293L13.6839 18.2801C13.1485 18.4233 12.5844 18.5 12 18.5C11.4156 18.5 10.8515 18.4233 10.3161 18.2801L9.9287 19.7293Z"/>
<path d="M16.0006 18.9294C17.2147 18.227 18.227 17.2147 18.9294 16.0006L17.631 15.2494C17.06 16.2364 16.2364 17.06 15.2494 17.631L16.0006 18.9294Z" />
</svg>
