<svg width="188" height="124" viewBox="0 0 188 124" fill="none" xmlns="http://www.w3.org/2000/svg">
<path d="M183.003 -7.33596e-07C183.843 -7.33596e-07 184.662 0.216478 185.462 0.649436C186.262 1.07798 186.884 1.69428 187.331 2.49834C187.777 3.29799 188 4.13298 188 5.00331C188 5.86481 187.779 6.69317 187.337 7.4884C186.9 8.28363 186.284 8.90214 185.488 9.34394C184.698 9.78131 183.869 10 183.003 10C182.137 10 181.307 9.78131 180.512 9.34394C179.721 8.90214 179.104 8.28363 178.663 7.4884C178.221 6.69317 178 5.86481 178 5.00331C178 4.13298 178.223 3.29799 178.669 2.49834C179.12 1.69428 179.745 1.07798 180.545 0.649436C181.344 0.216478 182.164 -7.33596e-07 183.003 -7.33596e-07ZM183.003 0.828362C182.301 0.828362 181.616 1.0095 180.949 1.37177C180.286 1.72962 179.767 2.24431 179.392 2.91584C179.016 3.58295 178.828 4.27877 178.828 5.00331C178.828 5.72344 179.012 6.41484 179.378 7.07753C179.75 7.73581 180.266 8.2505 180.929 8.6216C181.592 8.98829 182.283 9.17164 183.003 9.17164C183.723 9.17164 184.415 8.98829 185.078 8.6216C185.74 8.2505 186.255 7.73581 186.622 7.07753C186.988 6.41484 187.172 5.72344 187.172 5.00331C187.172 4.27877 186.984 3.58295 186.608 2.91584C186.237 2.24431 185.718 1.72962 185.051 1.37177C184.384 1.0095 183.701 0.828362 183.003 0.828362ZM181.077 7.69231V2.30769H182.665C183.297 2.30769 183.748 2.43649 184.03 2.5381C184.313 2.6353 184.539 2.8076 184.706 3.055C184.874 3.30241 184.958 3.56527 184.958 3.8436C184.958 4.2368 184.817 4.57919 184.534 4.87077C184.256 5.16236 183.885 5.32582 183.421 5.36117C183.611 5.44069 183.763 5.53567 183.878 5.64612C184.095 5.85818 184.36 6.21383 184.673 6.71305L185.308 7.69231H184.154L183.792 6.91849C183.416 6.25138 183.114 5.83388 182.884 5.666C182.725 5.5423 182.536 5.38461 182.231 5.38461L181.846 5.36117V7.69231H181.077ZM181.846 4.61538H182.615C183.119 4.61538 183.578 4.66313 183.759 4.51292C183.944 4.36271 184.03 4.09101 184.03 3.8436C184.03 3.55236 183.793 3.30828 183.533 3.20742C183.379 3.14557 183.04 3.055 182.615 3.055H181.846V4.61538Z"/>
<path fill-rule="evenodd" clip-rule="evenodd" d="M56 42.0507C56 21.0816 73.0041 4 94.0159 4C115.002 4 132 21.0856 132 42.0507C132 62.9859 114.983 80 94.0159 80C73.023 80 56 62.9899 56 42.0507ZM119.889 42.0507C119.889 27.7378 108.279 16.1074 94.0159 16.1074C79.7189 16.1074 68.1113 27.7418 68.1113 42.0507C68.1113 56.292 79.7001 67.8926 94.0159 67.8926C108.298 67.8926 119.889 56.2959 119.889 42.0507Z"/>
<path fill-rule="evenodd" clip-rule="evenodd" d="M40.3132 74.2519C42.5748 71.935 42.5601 68.189 40.2778 65.8928L16.5397 41.9953L40.2778 18.1085C42.5601 15.8123 42.5758 12.0664 40.3142 9.74946C38.0516 7.43154 34.3634 7.41479 32.0802 9.71201L0 41.9923L32.0792 74.2874C34.3624 76.5846 38.0506 76.5688 40.3132 74.2519Z"/>
<path fill-rule="evenodd" clip-rule="evenodd" d="M147.687 74.2519C145.425 71.935 145.44 68.189 147.722 65.8928L171.46 41.9953L147.722 18.1085C145.44 15.8123 145.424 12.0664 147.686 9.74946C149.948 7.43154 153.637 7.41479 155.92 9.71201L188 41.9923L155.921 74.2874C153.638 76.5846 149.949 76.5688 147.687 74.2519Z"/>
<path fill-rule="evenodd" clip-rule="evenodd" d="M55.7601 80.242C53.4135 77.8983 53.4135 74.0928 55.7591 71.7491L123.746 3.75901C126.089 1.41432 129.896 1.41333 132.24 3.75802C134.587 6.10172 134.587 9.90715 132.241 12.2509L64.2542 80.241C61.9106 82.5857 58.1038 82.5867 55.7601 80.242Z" fill="#00ABAB"/>
<path d="M6 94V111.5C6 116.76 10.031 121 15 121C19.968 121 24 116.76 24 111.5L23.9999 106.533C23.9999 102.468 23.9998 97.7968 24 94H18V111.5C18 113.254 17 115 15 115C13 115 12 113.254 12 111.5V94H6Z" />
<path d="M44 100V120.978L50 121V100H55V94H39V100H44Z" />
<path fill-rule="evenodd" clip-rule="evenodd" d="M70 107.499C70 100.048 76.0478 94 83.4985 94C90.9522 94 97 100.048 97 107.499C97 114.952 90.9522 121 83.4985 121C76.0478 121 70 114.952 70 107.499ZM90.6459 107.499C90.6459 103.556 87.4449 100.353 83.4985 100.353C79.5541 100.353 76.3531 103.556 76.3531 107.499C76.3531 111.445 79.5541 114.646 83.4985 114.646C87.4449 114.646 90.6459 111.445 90.6459 107.499Z" />
<path d="M143 121V94H149V121H143Z" />
<path fill-rule="evenodd" clip-rule="evenodd" d="M176 121L176.003 116H170.001L170 121H164V103.5C164 98.238 168.033 94 173 94C177.967 94 182 98.238 182 103.5V121H176ZM176.003 110L176 103.532C176 101.777 174.655 100.352 173 100.352C171.345 100.352 170 101.745 170 103.5V110H176.003Z" />
<path fill-rule="evenodd" clip-rule="evenodd" d="M112 121V94H120.915V94.005C124.844 94.115 128 97.628 128 101.942C128 106.115 124.882 110 121 110H118V121H112ZM123 102C123 103.715 122.056 104.939 120.5 105H118V99H120.5C122.106 99 123 100.247 123 102Z" />
</svg>
