<svg width="24" height="24" viewBox="0 0 24 24" fill="none" xmlns="http://www.w3.org/2000/svg">
<path fill-rule="evenodd" clip-rule="evenodd" d="M7.08771 17.3298L7.10129 17.317C7.25328 17.1726 7.60674 16.957 8.15111 16.7357C8.67044 16.5246 9.27665 16.3431 9.85413 16.2265L9.88943 16.2194L9.92412 16.2097C10.6422 16.0101 11.1414 15.6144 11.4244 15.0412C11.626 14.6329 11.688 14.1606 11.7254 13.8758C11.7306 13.8364 11.7353 13.8005 11.7398 13.7689C11.7912 13.4117 11.6461 13.0545 11.3601 12.8344C10.9825 12.5436 10.6345 12.0383 10.3795 11.3917C10.1277 10.7531 10 10.0597 10 9.48183C10 8.14225 11.2278 7 12.5 7C13.7722 7 15 8.14225 15 9.48183C15 10.0597 14.8723 10.7531 14.6205 11.3917C14.3655 12.0383 14.0175 12.5436 13.6399 12.8344C13.3539 13.0545 13.2088 13.4117 13.2602 13.7689C13.2647 13.8006 13.2695 13.8367 13.2747 13.8763C13.3119 14.1608 13.3738 14.6329 13.575 15.0409C13.858 15.6146 14.3576 16.0102 15.0762 16.2098L15.1106 16.2194L15.1457 16.2264C15.7227 16.343 16.3291 16.5246 16.849 16.7358C17.3938 16.9571 17.7487 17.173 17.9022 17.3182L17.9136 17.329L17.9253 17.3394C17.9462 17.3579 17.9602 17.3715 17.9692 17.3807C17.9754 17.4108 17.9843 17.4711 17.9905 17.5846C17.9962 17.6872 17.9987 17.8125 17.9996 17.9746C17.9681 17.9886 17.9254 18 17.8744 18H7.01264L7.01029 17.9991C7.00711 17.9978 7.00374 17.9962 7.00027 17.9944C7.00103 17.8224 7.00354 17.6911 7.00938 17.5843C7.01547 17.4729 7.02414 17.413 7.03023 17.3827C7.0393 17.3736 7.05321 17.3602 7.07367 17.3422L7.08771 17.3298ZM6.41275 16.5917C6.03142 16.9276 6 17.167 6 18.1279C6 18.5634 6.5005 19 6.99883 19H17.8744C18.4995 19 19 18.5634 19 18.1279C19 17.167 18.9675 16.9276 18.5894 16.5917C18.0088 16.0425 16.6145 15.503 15.3438 15.2462C14.4384 14.9948 14.3579 14.4094 14.2687 13.7609C14.2626 13.7164 14.2565 13.6716 14.25 13.6267C15.3853 12.7524 16 10.901 16 9.48183C16 7.56 14.294 6 12.5 6C10.706 6 9 7.56 9 9.48183C9 10.901 9.61467 12.7524 10.75 13.6267C10.7436 13.6711 10.7375 13.7152 10.7315 13.7591C10.6421 14.4084 10.5614 14.9946 9.65625 15.2462C8.38442 15.503 6.99125 16.0425 6.41275 16.5917Z"/>
</svg>
