<svg width="24" height="24" viewBox="0 0 24 24" fill="none" xmlns="http://www.w3.org/2000/svg">
<path fill-rule="evenodd" clip-rule="evenodd" d="M6.88541 18.2171C7.63214 17.9135 8.40185 17.7236 9.18305 17.5364C10.1673 17.2628 10.8684 16.7135 11.2659 15.9083C11.5832 15.2655 11.65 14.5089 11.6963 14.1868C11.7733 13.6509 11.5556 13.1151 11.1267 12.7849C10.6695 12.4328 10.2316 11.8059 9.90597 10.9802C9.58506 10.1664 9.42308 9.28343 9.42308 8.55317C9.42308 6.91337 10.9368 5.5 12.5 5.5C14.0632 5.5 15.5769 6.91337 15.5769 8.55317C15.5769 9.28343 15.4149 10.1664 15.094 10.9802C14.7684 11.8059 14.3305 12.4328 13.8733 12.7849C13.4444 13.1151 13.2267 13.6509 13.3037 14.1868C13.3498 14.5076 13.4163 15.265 13.7333 15.9077C14.1309 16.7138 14.8326 17.2631 15.8174 17.5366C16.5985 17.7237 17.3681 17.9139 18.1147 18.2173C19.055 18.5993 19.4865 18.6294 19.4981 19.5H5.50189C5.51262 18.6755 6.19415 18.4981 6.88541 18.2171ZM4.53975 17.8507C4.04108 18.2899 4 18.603 4 19.8596C4 20.4291 4.6545 21 5.30617 21H19.5281C20.3455 21 21 20.4291 21 19.8596C21 18.603 20.9575 18.2899 20.4631 17.8507C19.7038 17.1325 17.8805 16.427 16.2188 16.0912C14.9537 15.7399 14.9202 14.8899 14.7885 13.9733C16.2731 12.8301 17.0769 10.409 17.0769 8.55317C17.0769 6.04 14.846 4 12.5 4C10.154 4 7.92308 6.04 7.92308 8.55317C7.92308 10.409 8.72687 12.8301 10.2115 13.9733C10.0798 14.8899 10.0449 15.7399 8.78125 16.0912C7.11808 16.427 5.29625 17.1325 4.53975 17.8507Z" />
</svg>
