<svg width="24" height="24" viewBox="0 0 24 24" fill="none" xmlns="http://www.w3.org/2000/svg">
<path fill-rule="evenodd" clip-rule="evenodd" d="M19 2.5H5C4.72386 2.5 4.5 2.72386 4.5 3V21C4.5 21.2761 4.72386 21.5 5 21.5H19C19.2761 21.5 19.5 21.2761 19.5 21V3C19.5 2.72386 19.2761 2.5 19 2.5ZM5 1C3.89543 1 3 1.89543 3 3V21C3 22.1046 3.89543 23 5 23H19C20.1046 23 21 22.1046 21 21V3C21 1.89543 20.1046 1 19 1H5Z" />
<path fill-rule="evenodd" clip-rule="evenodd" d="M17 16H7V15H17V16Z" />
<path fill-rule="evenodd" clip-rule="evenodd" d="M17 18H7V17H17V18Z" />
<path fill-rule="evenodd" clip-rule="evenodd" d="M8 12.4633C8 11.872 8.01933 11.7247 8.254 11.518C8.61 11.18 9.46733 10.848 10.25 10.69C10.8447 10.5247 11.124 10.1247 11.186 9.69333C10.4873 9.15533 10 8.016 10 7.14267C10 5.96 10.896 5 12 5C13.104 5 14 5.96 14 7.14267C14 8.016 13.512 9.15533 12.8133 9.69333C12.8753 10.1247 13.1547 10.5247 13.75 10.69C14.532 10.848 15.39 11.18 15.7473 11.518C15.98 11.7247 16 11.872 16 12.4633C16 12.7313 15.692 13 15.3073 13H8.61467C8.308 13 8 12.7313 8 12.4633Z" />
</svg>
