<svg width="24" height="24" viewBox="0 0 24 24" fill="none" xmlns="http://www.w3.org/2000/svg">
<path fill-rule="evenodd" clip-rule="evenodd" d="M18 20H6.00001C5.44773 20 5.00099 19.5513 4.99486 18.9991C4.9638 16.2 4.78588 14.6233 4.29035 11.9913C3.00774 11.8848 2 10.8101 2 9.5C2 8.11929 3.11929 7 4.5 7C5.88071 7 7 8.11929 7 9.5C7 10.1931 6.71794 10.8204 6.26233 11.2732C7.19999 12.0592 8.50553 12.3681 9.39591 11.2551L10.6544 9.68202C9.67323 9.1888 9 8.17302 9 7C9 5.34315 10.3431 4 12 4C13.6569 4 15 5.34315 15 7C15 8.17301 14.3268 9.18878 13.3456 9.68201L14.6041 11.2551C15.4945 12.3681 16.8 12.0592 17.7377 11.2732C17.2821 10.8204 17 10.1931 17 9.5C17 8.11929 18.1193 7 19.5 7C20.8807 7 22 8.11929 22 9.5C22 10.8217 20.9743 11.9039 19.6755 11.9939C19.139 14.6133 19.0213 16.2005 19.0029 18.9991C18.9993 19.5513 18.5523 20 18 20ZM17.9553 13.015C17.6316 14.894 17.5323 16.3793 17.5074 18.5H6.48774C6.44842 16.3467 6.30849 14.8645 5.99191 12.9829C7.4592 13.8936 9.43696 13.605 10.5672 12.1922L12 10.4012L13.4328 12.1922C14.5496 13.5881 16.4937 13.8866 17.9553 13.015ZM5.5 9.5C5.5 10.0523 5.05228 10.5 4.5 10.5C3.94772 10.5 3.5 10.0523 3.5 9.5C3.5 8.94771 3.94772 8.5 4.5 8.5C5.05228 8.5 5.5 8.94771 5.5 9.5ZM19.5 10.5C20.0523 10.5 20.5 10.0523 20.5 9.5C20.5 8.94771 20.0523 8.5 19.5 8.5C18.9477 8.5 18.5 8.94771 18.5 9.5C18.5 10.0523 18.9477 10.5 19.5 10.5ZM13.5 7C13.5 7.82843 12.8284 8.5 12 8.5C11.1716 8.5 10.5 7.82843 10.5 7C10.5 6.17157 11.1716 5.5 12 5.5C12.8284 5.5 13.5 6.17157 13.5 7Z" />
</svg>
